<?xml version="1.0" encoding="UTF-8" standalone="no"?>
<svg
   width="651.17798"
   height="651.17798"
   viewBox="0 0 651.17798 651.17798"
   xml:space="preserve"
   overflow="hidden"
   version="1.1"
   id="svg6"
   xmlns="http://www.w3.org/2000/svg"
   xmlns:svg="http://www.w3.org/2000/svg"><defs
     id="defs5"><linearGradient
       x1="1072.75"
       y1="1254"
       x2="1072.75"
       y2="2348.5"
       gradientUnits="userSpaceOnUse"
       spreadMethod="reflect"
       id="fill0"><stop
         offset="0"
         stop-color="#F0F8FD"
         id="stop1" /><stop
         offset="0.43364"
         stop-color="#A02B93"
         id="stop2" /><stop
         offset="0.74"
         stop-color="#74C4E9"
         id="stop3" /><stop
         offset="0.83"
         stop-color="#74C4E9"
         id="stop4" /><stop
         offset="1"
         stop-color="#A2D8F0"
         id="stop5" /></linearGradient></defs><g
     transform="translate(-768.79001,-1376.832)"
     id="g6"><path
       d="m 882.968,1395.67 h 41.86 v 373.08 l 14.323,-0.3 c 43.202,-1.82 82.139,-10 116.819,-24.55 39.64,-16.62 73.03,-40.89 100.2,-72.81 27.16,-31.91 47.79,-70.95 61.9,-117.11 14.1,-46.17 21.15,-98.94 21.15,-158.31 h 42.75 c 0,65.61 -8.17,124.02 -24.49,175.23 -16.33,51.21 -40.3,94.48 -71.92,129.81 -3.95,4.41 -8.02,8.7 -12.19,12.85 l -12.78,11.99 151.66,302.46 h -49.88 l -137.99,-275.14 -6.37,4.16 c -15.16,9.28 -31.31,17.37 -48.46,24.28 -40,16.1 -85.118,25.16 -135.35,27.18 l -9.372,0.18 v 219.34 h -41.86 z"
       fill="url(#fill0)"
       fill-rule="evenodd"
       id="path5"
       style="fill:url(#fill0)" /><text
       fill="#000000"
       fill-opacity="0"
       font-family="Arial, Arial_MSFontService, sans-serif"
       font-size="632.344px"
       x="882.96802"
       y="1948.97"
       id="text5">K</text><text
       font-family="'Cascadia Code ExtraLight', 'Cascadia Code ExtraLight_MSFontService', sans-serif"
       font-weight="200"
       font-size="912px"
       transform="translate(783.484,2028)"
       id="text6">K</text></g></svg>
