<svg width="3792" height="2036" xmlns="http://www.w3.org/2000/svg" xmlns:xlink="http://www.w3.org/1999/xlink" xml:space="preserve" overflow="hidden"><defs><clipPath id="clip0"><rect x="304" y="436" width="3792" height="2036"/></clipPath></defs><g clip-path="url(#clip0)" transform="translate(-304 -436)"><rect x="304" y="436" width="3792" height="2036" fill="#FFFFFF"/><text fill="#FFFFFF" font-family="DengXian,DengXian_MSFontService,sans-serif" font-weight="400" font-size="83" transform="matrix(1 0 0 1 1956.51 1432)">Runtime Stats</text><text fill="#FFFFFF" font-family="DengXian,DengXian_MSFontService,sans-serif" font-weight="400" font-size="83" transform="matrix(1 0 0 1 2035.27 1531)">Snapshot</text><path d="M1734.5 532.167C1734.5 519.096 1745.1 508.5 1758.17 508.5L2349.83 508.5C2362.9 508.5 2373.5 519.096 2373.5 532.167L2373.5 626.833C2373.5 639.904 2362.9 650.5 2349.83 650.5L1758.17 650.5C1745.1 650.5 1734.5 639.904 1734.5 626.833Z" stroke="#042433" stroke-width="6.875" stroke-miterlimit="8" fill="#FFFFFF" fill-rule="evenodd"/><text font-family="DengXian,DengXian_MSFontService,sans-serif" font-weight="400" font-size="83" transform="matrix(1 0 0 1 1777.41 607)">Inference Client</text><path d="M1305.5 986.005C1305.5 830.534 1429.77 704.5 1583.06 704.5L3021.44 704.5C3174.73 704.5 3298.99 830.534 3298.99 986.005 3298.99 1361.34 3302.5 1800.67 3302.5 2176 3302.5 2331.47 3244.85 2393.5 3091.56 2393.5L1583.06 2393.5C1429.77 2393.5 1305.5 2267.47 1305.5 2111.99L1305.5 986.005Z" stroke="#042433" stroke-width="3.4375" stroke-miterlimit="8" fill="none" fill-rule="evenodd"/><path d="M1861.5 789.667C1861.5 773.006 1875.01 759.5 1891.67 759.5L2216.33 759.5C2232.99 759.5 2246.5 773.006 2246.5 789.667L2246.5 910.333C2246.5 926.994 2232.99 940.5 2216.33 940.5L1891.67 940.5C1875.01 940.5 1861.5 926.994 1861.5 910.333Z" stroke="#000000" stroke-width="6.875" stroke-miterlimit="8" fill="none" fill-rule="evenodd"/><text font-family="DengXian,DengXian_MSFontService,sans-serif" font-weight="400" font-size="64" transform="matrix(1 0 0 1 1938.12 832)">Connect </text><text font-family="DengXian,DengXian_MSFontService,sans-serif" font-weight="400" font-size="64" transform="matrix(1 0 0 1 1944.14 909)">Handler</text><path d="M1861 1069.5C1861 1046.58 1879.58 1028 1902.5 1028L2204.5 1028C2227.42 1028 2246 1046.58 2246 1069.5L2246 1235.5C2246 1258.42 2227.42 1277 2204.5 1277L1902.5 1277C1879.58 1277 1861 1258.42 1861 1235.5Z" stroke="#000000" stroke-width="10.3125" stroke-miterlimit="8" fill="#FFFFFF" fill-rule="evenodd"/><text font-family="DengXian,DengXian_MSFontService,sans-serif" font-weight="700" font-size="64" transform="matrix(1 0 0 1 1935.84 1097)">Request </text><text font-family="DengXian,DengXian_MSFontService,sans-serif" font-weight="700" font-size="64" transform="matrix(1 0 0 1 1928.66 1174)">Lifecycle </text><text font-family="DengXian,DengXian_MSFontService,sans-serif" font-weight="700" font-size="64" transform="matrix(1 0 0 1 1923.51 1251)">Manager</text><path d="M2404.5 2104.67C2404.5 2088.56 2417.56 2075.5 2433.67 2075.5L2760.33 2075.5C2776.44 2075.5 2789.5 2088.56 2789.5 2104.67L2789.5 2221.33C2789.5 2237.44 2776.44 2250.5 2760.33 2250.5L2433.67 2250.5C2417.56 2250.5 2404.5 2237.44 2404.5 2221.33Z" stroke="#000000" stroke-width="6.875" stroke-miterlimit="8" fill="none" fill-rule="evenodd"/><text font-family="DengXian,DengXian_MSFontService,sans-serif" font-weight="400" font-size="64" transform="matrix(1 0 0 1 2478.14 2146)">Executor </text><text font-family="DengXian,DengXian_MSFontService,sans-serif" font-weight="400" font-size="64" transform="matrix(1 0 0 1 2473.26 2223)">Manager</text><path d="M1516.5 1449.67C1516.5 1433.56 1529.56 1420.5 1545.67 1420.5L1872.33 1420.5C1888.44 1420.5 1901.5 1433.56 1901.5 1449.67L1901.5 1566.33C1901.5 1582.44 1888.44 1595.5 1872.33 1595.5L1545.67 1595.5C1529.56 1595.5 1516.5 1582.44 1516.5 1566.33Z" stroke="#E97132" stroke-width="6.875" stroke-miterlimit="8" fill="none" fill-rule="evenodd"/><text font-family="DengXian,DengXian_MSFontService,sans-serif" font-weight="400" font-size="64" transform="matrix(1 0 0 1 1635.07 1490)">Initial </text><text font-family="DengXian,DengXian_MSFontService,sans-serif" font-weight="400" font-size="64" transform="matrix(1 0 0 1 1564.33 1567)">Work Item</text><path d="M2898.5 2116C2898.5 2103.02 2909.02 2092.5 2922 2092.5L3204 2092.5C3216.98 2092.5 3227.5 2103.02 3227.5 2116L3227.5 2210C3227.5 2222.98 3216.98 2233.5 3204 2233.5L2922 2233.5C2909.02 2233.5 2898.5 2222.98 2898.5 2210Z" stroke="#000000" stroke-width="6.875" stroke-miterlimit="8" fill="none" fill-rule="evenodd"/><text font-family="DengXian,DengXian_MSFontService,sans-serif" font-weight="400" font-size="64" transform="matrix(1 0 0 1 2943.84 2146)">Executor</text><text font-family="DengXian,DengXian_MSFontService,sans-serif" font-weight="400" font-size="64" transform="matrix(1 0 0 1 2983.64 2223)">Client</text><path d="M2169 1707.83C2169 1679.21 2192.21 1656 2220.83 1656L2523.17 1656C2551.79 1656 2575 1679.21 2575 1707.83L2575 1915.17C2575 1943.79 2551.79 1967 2523.17 1967L2220.83 1967C2192.21 1967 2169 1943.79 2169 1915.17Z" stroke="#000000" stroke-width="10.3125" stroke-miterlimit="8" fill="none" fill-rule="evenodd"/><text font-family="DengXian,DengXian_MSFontService,sans-serif" font-weight="700" font-size="64" transform="matrix(1 0 0 1 2282.63 1756)">Token </text><text font-family="DengXian,DengXian_MSFontService,sans-serif" font-weight="700" font-size="64" transform="matrix(1 0 0 1 2267.16 1833)">Budget </text><text font-family="DengXian,DengXian_MSFontService,sans-serif" font-weight="700" font-size="64" transform="matrix(1 0 0 1 2228.78 1910)">Scheduler</text><path d="M3537.5 2207.17C3537.5 2190.78 3550.78 2177.5 3567.17 2177.5L3906.83 2177.5C3923.22 2177.5 3936.5 2190.78 3936.5 2207.17L3936.5 2325.83C3936.5 2342.22 3923.22 2355.5 3906.83 2355.5L3567.17 2355.5C3550.78 2355.5 3537.5 2342.22 3537.5 2325.83Z" stroke="#000000" stroke-width="6.875" stroke-miterlimit="8" fill="none" fill-rule="evenodd"/><text font-family="DengXian,DengXian_MSFontService,sans-serif" font-weight="400" font-size="73" transform="matrix(1 0 0 1 3611.38 2290)">Executor</text><path d="M370.5 1448C370.5 1374.82 429.824 1315.5 503.003 1315.5L1033 1315.5C1106.18 1315.5 1165.5 1374.82 1165.5 1448L1165.5 2261C1165.5 2334.18 1106.18 2393.5 1033 2393.5L503.003 2393.5C429.824 2393.5 370.5 2334.18 370.5 2261Z" stroke="#042433" stroke-width="3.4375" stroke-miterlimit="8" fill="none" fill-rule="evenodd"/><text font-family="DengXian,DengXian_MSFontService,sans-serif" font-weight="700" font-size="83" transform="matrix(1 0 0 1 456.801 1433)">Admin</text><text font-family="DengXian,DengXian_MSFontService,sans-serif" font-weight="700" font-size="83" transform="matrix(1 0 0 1 439.613 1532)">Service</text><path d="M412.5 1646.5C412.5 1629.93 425.932 1616.5 442.501 1616.5L862.499 1616.5C879.068 1616.5 892.5 1629.93 892.5 1646.5L892.5 1766.5C892.5 1783.07 879.068 1796.5 862.499 1796.5L442.501 1796.5C425.932 1796.5 412.5 1783.07 412.5 1766.5Z" stroke="#042433" stroke-width="6.875" stroke-miterlimit="8" fill="#7F7F7F" fill-rule="evenodd"/><text fill="#FFFFFF" font-family="DengXian,DengXian_MSFontService,sans-serif" font-weight="400" font-size="64" transform="matrix(1 0 0 1 461.6 1689)">Runtime Stats</text><text fill="#FFFFFF" font-family="DengXian,DengXian_MSFontService,sans-serif" font-weight="400" font-size="64" transform="matrix(1 0 0 1 523.75 1766)">Snapshot</text><path d="M780.5 1957.17C780.5 1944.1 791.096 1933.5 804.167 1933.5L1078.83 1933.5C1091.9 1933.5 1102.5 1944.1 1102.5 1957.17L1102.5 2051.83C1102.5 2064.9 1091.9 2075.5 1078.83 2075.5L804.167 2075.5C791.096 2075.5 780.5 2064.9 780.5 2051.83Z" stroke="#042433" stroke-width="6.875" stroke-miterlimit="8" fill="#7F7F7F" fill-rule="evenodd"/><text fill="#FFFFFF" font-family="DengXian,DengXian_MSFontService,sans-serif" font-weight="400" font-size="64" transform="matrix(1 0 0 1 840.585 2025)">Metrics</text><path d="M2058.16 940 2058.16 1001.99 2047.84 1001.99 2047.84 940ZM2068.47 996.829 2053 1027.77 2037.53 996.829Z"/><path d="M2058.71 1277.38 2058.43 1281.1 2057.54 1285.13 2056.11 1289.07 2054.18 1292.89 2051.8 1296.59 2048.99 1300.19 2045.78 1303.68 2042.19 1307.08 2038.24 1310.38 2033.9 1313.63 2024.38 1319.74 2013.59 1325.51 2001.71 1330.87 1988.84 1335.77 1975.11 1340.19 1960.63 1344.06 1945.52 1347.35 1929.91 1350 1913.92 1351.95 1897.67 1353.17 1881.41 1353.58 1865.28 1353.99 1865.54 1353.98 1849.53 1355.17 1849.77 1355.15 1834.02 1357.07 1834.26 1357.04 1818.89 1359.64 1819.12 1359.6 1804.25 1362.83 1804.49 1362.78 1790.25 1366.59 1790.49 1366.51 1777.01 1370.85 1777.27 1370.76 1764.68 1375.56 1764.96 1375.44 1753.37 1380.67 1753.68 1380.51 1743.23 1386.1 1743.58 1385.89 1734.39 1391.8 1734.7 1391.59 1730.61 1394.64 1731.55 1393.74 1725.92 1400.75 1717.88 1394.3 1723.91 1386.77 1728.67 1383.22 1738.19 1377.1 1748.97 1371.34 1760.86 1365.98 1773.73 1361.07 1787.46 1356.66 1801.94 1352.78 1817.04 1349.5 1832.65 1346.85 1848.64 1344.89 1864.9 1343.68 1881.15 1343.27 1897.28 1342.86 1897.03 1342.87 1913.03 1341.68 1912.79 1341.7 1928.54 1339.77 1928.31 1339.81 1943.68 1337.2 1943.45 1337.25 1958.32 1334.01 1958.08 1334.07 1972.32 1330.26 1972.07 1330.33 1985.55 1326 1985.29 1326.09 1997.89 1321.29 1997.61 1321.4 2009.2 1316.18 2008.89 1316.33 2019.34 1310.75 2018.98 1310.95 2028.17 1305.05 2027.87 1305.26 2031.95 1302.21 2031.73 1302.38 2035.45 1299.27 2035.22 1299.48 2038.56 1296.32 2038.3 1296.57 2041.25 1293.37 2040.99 1293.68 2043.52 1290.43 2043.25 1290.81 2045.36 1287.53 2045.09 1288 2046.76 1284.69 2046.52 1285.25 2047.73 1281.92 2047.54 1282.57 2048.28 1279.23 2048.18 1279.96 2048.43 1276.62ZM1737.87 1400.8 1709 1419.85 1711.08 1385.32Z"/><path d="M1.14506e-05-3.4375 85.424-3.43722 85.4239 3.43778-1.14506e-05 3.4375ZM80.8407-13.7497 108.341 0.000360892 80.8406 13.7503Z" transform="matrix(1 0 0 -1 2789.5 2163.5)"/><path d="M0.731836-3.35869 212.176 42.7136 210.713 49.431-0.731836 3.35869ZM209.893 31.6617 233.836 50.9511 204.039 58.5312Z" transform="matrix(1 0 0 -1 3227.5 2163.45)"/><path d="M6.11666e-06-3.4375 179.901-3.43718 179.901 3.43782-6.11666e-06 3.4375ZM175.318-13.7497 202.818 0.000360892 175.318 13.7503Z" transform="matrix(-1 0 0 1 1305.32 2004.5)"/><path d="M2058.16 650 2058.16 732.808 2047.84 732.808 2047.84 650ZM2068.47 727.651 2053 758.589 2037.53 727.651Z"/><path d="M780.199 2007.55 774.039 2007.24 767.735 2006.3 761.478 2004.76 755.282 2002.66 749.16 2000.01 743.123 1996.84 737.181 1993.16 731.343 1989.01 725.619 1984.41 720.017 1979.36 714.547 1973.91 709.22 1968.05 704.044 1961.82 699.011 1955.2 689.532 1941.04 680.809 1925.64 672.949 1909.19 666.044 1891.82 660.183 1873.68 655.46 1854.93 651.964 1835.7 650.43 1819.7 657.274 1819.05 658.794 1834.9 658.754 1834.61 662.204 1853.59 662.155 1853.37 666.822 1871.89 666.76 1871.68 672.551 1889.59 672.474 1889.38 679.295 1906.54 679.203 1906.33 686.961 1922.57 686.85 1922.36 695.45 1937.54 695.316 1937.32 704.666 1951.29 704.546 1951.12 709.472 1957.6 709.381 1957.48 714.46 1963.6 714.358 1963.48 719.577 1969.22 719.463 1969.1 724.811 1974.44 724.682 1974.31 730.148 1979.23 730.003 1979.11 735.573 1983.59 735.41 1983.47 741.074 1987.5 740.89 1987.37 746.636 1990.92 746.428 1990.81 752.244 1993.86 752.011 1993.75 757.886 1996.3 757.626 1996.19 763.547 1998.21 763.26 1998.12 769.217 1999.58 768.905 1999.52 774.885 2000.41 774.551 2000.38 780.543 2000.68ZM640.396 1824.76 652.5 1796.5 667.848 1823.14Z"/><path d="M475.5 973.167C475.5 960.096 486.096 949.5 499.167 949.5L1064.83 949.5C1077.9 949.5 1088.5 960.096 1088.5 973.167L1088.5 1067.83C1088.5 1080.9 1077.9 1091.5 1064.83 1091.5L499.167 1091.5C486.096 1091.5 475.5 1080.9 475.5 1067.83Z" stroke="#042433" stroke-width="6.875" stroke-miterlimit="8" fill="#FFFFFF" fill-rule="evenodd"/><text font-family="DengXian,DengXian_MSFontService,sans-serif" font-weight="400" font-size="83" transform="matrix(1 0 0 1 540.834 1048)">Metrics Client</text><path d="M3.43022-0.223637 16.5103 200.404 9.64991 200.851-3.43022 0.223637ZM26.5028 195.159 14.571 223.495-0.938938 196.948Z" transform="matrix(-1 0 0 1 782.071 1091.5)"/><path d="M785.57 1089.95 945.769 1407.82 939.63 1410.91 779.43 1093.05ZM952.916 1399.08 953.014 1429.83 928.358 1411.46Z"/><rect x="761.5" y="1429.5" width="383" height="134" stroke="#F2AA84" stroke-width="3.4375" stroke-linecap="square" stroke-linejoin="round" stroke-miterlimit="10" stroke-dasharray="10.3125 3.4375" fill="none"/><text font-family="DengXian,DengXian_MSFontService,sans-serif" font-weight="400" font-size="83" transform="matrix(1 0 0 1 793.569 1523)">/metrics</text><path d="M4.12434 22.8033 4.74388 43.419-2.12801 43.6255-2.74756 23.0098ZM4.9504 50.2909 5.56995 70.9065-1.30195 71.1131-1.9215 50.4974ZM5.77646 77.7784 6.39601 98.3941-0.475892 98.6007-1.09544 77.985ZM6.60252 105.266 7.22207 125.882 0.35017 126.088-0.269376 105.473ZM7.42858 132.754 8.04813 153.369 1.17623 153.576 0.556685 132.96ZM8.25464 160.241 8.87419 180.857 2.00229 181.063 1.38275 160.448ZM9.08071 187.729 9.70025 208.345 2.82835 208.551 2.20881 187.935ZM9.90676 215.216 10.5263 235.832 3.65441 236.039 3.03487 215.423ZM10.7328 242.704 11.3524 263.32 4.48047 263.526 3.86093 242.91ZM11.5589 270.192 12.1784 290.807 5.30654 291.014 4.68699 270.398ZM12.3849 297.679 13.0045 318.295 6.1326 318.501 5.51305 297.886ZM13.211 325.167 13.8306 345.782 6.95866 345.989 6.33911 325.373ZM14.0371 352.654 14.5641 370.19 7.69217 370.397 7.16517 352.861ZM-12.9177 27.9006 0 0 14.5699 27.0746Z" transform="matrix(-1 0 0 1 952.628 1563.5)"/><path d="M2803.5 1456.67C2803.5 1434.48 2821.48 1416.5 2843.67 1416.5L3092.33 1416.5C3114.52 1416.5 3132.5 1434.48 3132.5 1456.67L3132.5 1617.33C3132.5 1639.52 3114.52 1657.5 3092.33 1657.5L2843.67 1657.5C2821.48 1657.5 2803.5 1639.52 2803.5 1617.33Z" stroke="#0B76A0" stroke-width="6.875" stroke-miterlimit="8" fill="none" fill-rule="evenodd"/><text font-family="DengXian,DengXian_MSFontService,sans-serif" font-weight="400" font-size="64" transform="matrix(1 0 0 1 2848.87 1481)">Executor </text><text font-family="DengXian,DengXian_MSFontService,sans-serif" font-weight="400" font-size="64" transform="matrix(1 0 0 1 2883.82 1558)">Result </text><text font-family="DengXian,DengXian_MSFontService,sans-serif" font-weight="700" font-size="64" transform="matrix(1 0 0 1 2887.26 1635)">Event</text><path d="M2594.06 2075.06 2594.33 2065.19 2595.14 2055.24 2595.29 2054.12 2602.11 2055.04 2601.97 2056.06 2601.99 2055.89 2601.19 2065.65 2601.2 2065.47 2600.94 2075.25ZM2596.21 2047.31 2596.47 2045.34 2598.3 2035.5 2600.37 2026.77 2607.06 2028.35 2605.01 2037 2605.04 2036.83 2603.25 2046.51 2603.27 2046.33 2603.02 2048.22ZM2602.26 2019.99 2603.38 2016.09 2606.6 2006.56 2609.07 2000.21 2615.48 2002.7 2613.04 2008.97 2613.09 2008.83 2609.92 2018.21 2609.97 2018.06 2608.87 2021.89ZM2611.77 1993.72 2614.32 1987.93 2618.79 1978.84 2621.04 1974.91 2627.01 1978.33 2624.81 1982.17 2624.91 1981.97 2620.52 1990.9 2620.58 1990.77 2618.06 1996.49ZM2624.46 1968.94 2628.8 1961.37 2635.71 1951.34 2641.37 1955.23 2634.55 1965.15 2634.7 1964.91 2630.43 1972.36ZM2639.6 1945.67 2640.21 1944.79 2652.76 1929.43 2658.08 1933.77 2645.62 1949.03 2645.79 1948.81 2645.27 1949.57ZM2657.72 1924.26 2666.59 1915.08 2672.55 1909.63 2677.18 1914.71 2671.3 1920.08 2671.46 1919.93 2662.67 1929.04ZM2677.89 1905.07 2681.34 1902.19 2689.03 1896.32 2694.59 1892.47 2698.51 1898.12 2693.01 1901.93 2693.14 1901.84 2685.57 1907.61 2685.69 1907.51 2682.3 1910.35ZM2700.49 1888.63 2704.98 1885.82 2713.21 1881.23 2718.81 1878.47 2721.86 1884.63 2716.33 1887.36 2716.48 1887.28 2708.41 1891.79 2708.55 1891.7 2704.13 1894.46ZM2725.23 1875.54 2730.08 1873.46 2738.69 1870.32 2744.99 1868.42 2746.97 1875.01 2740.77 1876.87 2740.96 1876.81 2732.52 1879.88 2732.7 1879.81 2727.94 1881.85ZM2751.84 1866.65 2756.2 1865.63 2765.05 1864.12 2772.62 1863.34 2773.33 1870.18 2765.87 1870.95 2766.09 1870.92 2757.46 1872.39 2757.67 1872.34 2753.42 1873.34ZM2779.72 1863 2782.75 1862.89 2791.44 1862.59 2791.2 1862.61 2799.87 1861.71 2799.65 1861.74 2799.83 1861.71 2800.99 1868.49 2800.69 1868.54 2791.79 1869.46 2782.99 1869.76 2779.96 1869.87ZM2806.61 1860.56 2808.29 1860.27 2808.07 1860.32 2816.66 1858.29 2816.46 1858.35 2824.98 1855.79 2824.79 1855.85 2825.93 1855.44 2828.28 1861.89 2827.05 1862.34 2818.34 1864.96 2809.55 1867.03 2807.76 1867.34ZM2832.38 1853.08 2833.22 1852.78 2833.04 1852.85 2841.37 1849.27 2841.21 1849.35 2849.42 1845.3 2849.26 1845.38 2850.59 1844.64 2853.94 1850.64 2852.54 1851.43 2844.17 1855.56 2835.66 1859.2 2834.74 1859.54ZM2856.59 1841.29 2857.34 1840.87 2857.19 1840.96 2865.11 1836.01 2864.98 1836.1 2872.73 1830.73 2872.6 1830.82 2873.4 1830.22 2877.57 1835.69 2876.71 1836.34 2868.83 1841.8 2860.76 1846.83 2859.94 1847.29ZM2878.86 1826.05 2880.17 1825.05 2880.05 1825.15 2887.41 1818.99 2887.3 1819.09 2894.23 1812.77 2898.87 1817.85 2891.88 1824.22 2884.4 1830.47 2883.03 1831.52ZM2898.86 1807.99 2907.84 1798.68 2907.65 1798.9 2912.52 1792.93 2917.85 1797.28 2912.89 1803.35 2903.81 1812.76ZM2916.87 1787.61 2920.12 1783.63 2919.95 1783.85 2928.73 1771.1 2934.39 1774.99 2925.53 1787.87 2922.19 1791.96ZM2932.3 1765.56 2940.94 1750.49 2940.83 1750.68 2942.27 1747.76 2948.44 1750.8 2946.95 1753.82 2938.27 1768.98ZM2945.24 1741.72 2949.17 1732.8 2949.11 1732.93 2952.7 1723.68 2952.65 1723.83 2952.95 1722.93 2959.47 1725.13 2959.14 1726.1 2955.49 1735.49 2951.53 1744.49ZM2955.16 1716.42 2955.82 1714.44 2955.77 1714.6 2958.5 1705.1 2958.46 1705.25 2960.46 1696.83 2967.15 1698.41 2965.13 1706.92 2962.36 1716.57 2961.67 1718.62ZM2961.74 1690.25 2962.5 1686.15 2962.45 1686.46 2963.06 1680.03 2969.9 1680.67 2969.28 1687.26 2968.5 1691.5ZM2952.42 1683.86 2968.24 1657.5 2979.83 1685.98Z" fill="#7F7F7F"/><path d="M0.243105-3.42889 4.18748-3.14924 8.34149-2.27144 12.4417-0.837139 16.4792 1.12744 20.4532 3.59858 21.1673 4.13818 17.0222 9.62306 16.4328 9.17767 16.6902 9.35439 13 7.05973 13.3111 7.23158 9.61368 5.43247 9.98267 5.58617 6.27979 4.29086 6.70412 4.40938 2.99762 3.62614 3.46521 3.69181-0.243105 3.42889ZM26.7121 8.63975 28.2287 9.98723 32.0418 13.8776 35.8121 18.2183 39.5435 23.0008 40.7675 24.7288 35.1574 28.7027 33.9793 27.0396 34.0742 27.1672 30.4473 22.5187 30.5623 22.6583 26.9192 18.4641 27.0595 18.6161 23.4019 14.8843 23.5736 15.0479 22.1457 13.7792ZM44.73 30.5163 46.8997 33.8609 50.5274 39.924 54.1222 46.3993 55.2728 48.6218 49.1674 51.7825 48.0398 49.6044 48.0871 49.6925 44.5435 43.3096 44.5991 43.4061 41.0321 37.4444 41.098 37.5502 38.9623 34.2578ZM58.4346 54.8276 61.2127 60.5578 64.7072 68.2261 67.0707 73.7263 60.7542 76.4406 58.4054 70.9746 58.4357 71.043 54.9737 63.446 55.0085 63.5201 52.2483 57.8269ZM69.7354 80.1379 71.5902 84.7031 74.9812 93.5094 77.1344 99.5465 70.659 101.856 68.5202 95.8594 68.55 95.9399 65.1857 87.2031 65.2089 87.2617 63.366 82.7257ZM79.444 106.022 81.6306 112.153 86.0109 125.678 79.4703 127.796 75.1057 114.319 75.1382 114.415 72.9685 108.332ZM88.1534 132.304 93.9993 152.083 87.4062 154.032 81.5604 134.253ZM95.8499 158.786 100.543 176.124 101.203 178.778 94.5312 180.436 93.88 177.817 93.8979 177.886 89.2137 160.583ZM102.862 185.45 106.454 199.899 107.746 205.554 101.044 207.086 99.7586 201.463 99.7737 201.526 96.1897 187.108ZM109.278 212.256 112.144 224.792 113.754 232.45 107.027 233.865 105.422 226.237 105.435 226.295 102.576 213.788ZM115.169 239.178 117.6 250.739 119.284 259.445 112.534 260.75 110.856 252.071 110.867 252.126 108.441 240.593ZM120.589 266.195 122.809 277.673 124.38 286.521 117.611 287.723 116.045 278.9 116.054 278.952 113.839 267.5ZM125.582 293.29 127.756 305.529 129.079 313.667 122.293 314.771 120.974 306.657 120.982 306.706 118.813 294.492ZM130.183 320.453 132.426 334.241 133.41 340.871 126.609 341.881 125.629 335.274 125.636 335.322 123.397 321.556ZM134.419 347.672 136.805 363.745 137.396 368.127 130.582 369.046 129.995 364.686 130.001 364.732 127.619 348.681ZM138.314 374.941 140.88 393.975 141.056 395.428 134.231 396.257 134.058 394.826 134.063 394.871 131.501 375.859ZM141.886 402.252 144.375 422.727 137.55 423.556 135.061 403.082ZM145.15 429.602 147.378 450.106 140.543 450.849 138.315 430.344ZM148.117 456.984 150.088 477.515 143.244 478.172 141.273 457.641ZM150.745 484.359 151.129 488.358 152.513 504.95 145.662 505.522 144.279 488.951 144.283 488.993 143.901 485.016ZM153.085 511.801 153.839 520.831 154.661 532.409 147.803 532.895 146.983 521.339 146.986 521.381 146.234 512.373ZM155.147 539.266 156.172 553.701 156.534 559.887 149.67 560.289 149.31 554.123 149.313 554.166 148.29 539.753ZM156.935 566.751 158.113 586.901 158.135 587.384 151.268 587.699 151.246 587.238 151.249 587.281 150.072 567.152ZM158.45 594.252 159.395 614.855 152.528 615.17 151.583 594.567ZM159.695 621.767 160.377 642.381 153.506 642.608 152.823 621.995ZM160.605 649.252 160.763 654.031 161.082 669.916 154.209 670.054 153.89 654.192 153.891 654.236 153.733 649.48ZM161.22 676.79 161.442 687.829 161.508 697.458 154.633 697.505 154.568 687.898 154.568 687.944 154.347 676.928ZM171.798 694.1 158.234 721.693 144.298 694.287Z" fill="#7F7F7F" transform="matrix(-1.83697e-16 -1 -1 1.83697e-16 2968.19 1416.73)"/><path d="M1713.44 1595.01 1713.41 1608.55 1713.34 1621.68 1713.23 1633.95 1713.16 1639.65 1713.08 1644.97 1713 1649.87 1712.91 1654.29 1712.81 1658.19 1712.71 1661.51 1712.61 1664.22 1712.5 1666.3 1712.35 1668.02 1712.14 1668.85 1712.03 1669.27 1712.17 1668.43 1712.07 1669.65 1712.08 1669.47 1711.97 1671.43 1711.98 1671.36 1711.88 1674 1711.88 1673.96 1711.78 1677.25 1711.78 1677.22 1711.68 1681.09 1711.68 1681.07 1711.6 1685.47 1711.6 1685.45 1711.51 1690.34 1711.44 1695.63 1711.37 1701.3 1711.37 1701.27 1711.27 1714.4 1700.96 1714.32 1701.05 1701.18 1701.12 1695.48 1701.2 1690.16 1701.29 1685.27 1701.37 1680.85 1701.47 1676.95 1701.57 1673.63 1701.67 1670.92 1701.78 1668.84 1701.94 1667.11 1702.15 1666.29 1702.25 1665.87 1702.11 1666.7 1702.22 1665.49 1702.21 1665.67 1702.31 1663.71 1702.31 1663.78 1702.41 1661.13 1702.41 1661.18 1702.51 1657.89 1702.5 1657.92 1702.6 1654.05 1702.6 1654.07 1702.69 1649.67 1702.69 1649.68 1702.77 1644.82 1702.85 1639.52 1702.92 1633.86 1703.03 1621.6 1703.03 1621.62 1703.1 1608.51 1703.1 1608.53 1703.13 1594.99ZM1721.61 1709.27 1706 1740.14 1690.67 1709.13Z"/><path d="M2.48397-4.5185 175.353 90.5138 170.385 99.5508-2.48397 4.5185ZM175.803 78.9928 195.462 107.452 160.899 106.104Z" transform="matrix(-1 0 0 1 2372.46 1967)"/><path d="M2898.5 1886.17C2898.5 1873.1 2909.1 1862.5 2922.17 1862.5L3203.83 1862.5C3216.9 1862.5 3227.5 1873.1 3227.5 1886.17L3227.5 1980.83C3227.5 1993.9 3216.9 2004.5 3203.83 2004.5L2922.17 2004.5C2909.1 2004.5 2898.5 1993.9 2898.5 1980.83Z" stroke="#000000" stroke-width="6.875" stroke-miterlimit="8" fill="none" fill-rule="evenodd"/><text font-family="DengXian,DengXian_MSFontService,sans-serif" font-weight="400" font-size="64" transform="matrix(1 0 0 1 2943.84 1916)">Executor</text><text font-family="DengXian,DengXian_MSFontService,sans-serif" font-weight="400" font-size="64" transform="matrix(1 0 0 1 2983.64 1993)">Client</text><path d="M3.10828-1.468 101.663 207.207 95.446 210.143-3.10828 1.468ZM109.03 198.658 108.341 229.397 84.1639 210.402Z" transform="matrix(1 0 0 -1 2789.5 2162.9)"/><path d="M3537.5 1984.17C3537.5 1967.78 3550.78 1954.5 3567.17 1954.5L3906.83 1954.5C3923.22 1954.5 3936.5 1967.78 3936.5 1984.17L3936.5 2102.83C3936.5 2119.22 3923.22 2132.5 3906.83 2132.5L3567.17 2132.5C3550.78 2132.5 3537.5 2119.22 3537.5 2102.83Z" stroke="#000000" stroke-width="6.875" stroke-miterlimit="8" fill="none" fill-rule="evenodd"/><text font-family="DengXian,DengXian_MSFontService,sans-serif" font-weight="400" font-size="73" transform="matrix(1 0 0 1 3611.38 2067)">Executor</text><path d="M3.10478-1.47538 220.912 456.876 214.702 459.827-3.10478 1.47538ZM228.259 448.31 227.643 479.05 203.42 460.113Z" transform="matrix(1 0 0 -1 3227.5 1933.55)"/><path d="M2053.5 1456.67C2053.5 1440.56 2066.56 1427.5 2082.67 1427.5L2615.33 1427.5C2631.44 1427.5 2644.5 1440.56 2644.5 1456.67L2644.5 1573.33C2644.5 1589.44 2631.44 1602.5 2615.33 1602.5L2082.67 1602.5C2066.56 1602.5 2053.5 1589.44 2053.5 1573.33Z" stroke="#E97132" stroke-width="6.875" stroke-miterlimit="8" fill="none" fill-rule="evenodd"/><text font-family="DengXian,DengXian_MSFontService,sans-serif" font-weight="400" font-size="64" transform="matrix(1 0 0 1 2131.16 1498)">Next Work Item</text><text font-family="DengXian,DengXian_MSFontService,sans-serif" font-weight="400" font-size="64" transform="matrix(1 0 0 1 2119.13 1575)">Prefill or Decode</text><path d="M0.208385-3.43118 7.43921-2.99203 14.7951-1.67955 21.2057 0.19513 19.276 6.79376 13.0437 4.9712 13.4047 5.05594 6.42795 3.81111 6.82337 3.85824-0.208385 3.43118ZM27.9255 2.82886 29.0189 3.27213 35.7814 6.78918 42.2424 10.9227 46.2717 14.019 42.0826 19.4704 38.1707 16.4642 38.4128 16.6342 32.2061 12.6634 32.4725 12.8175 25.9908 9.44648 26.2855 9.58246 25.3426 9.20022ZM51.7073 18.6767 54.0554 20.8174 59.3031 26.4715 64.0405 32.5273 65.6338 34.9736 59.8729 38.7256 58.3609 36.4041 58.5339 36.6461 53.9775 30.8218 54.1654 31.0422 49.1139 25.5995 49.3175 25.8013 47.0754 23.7572ZM69.364 41.1076 71.7638 45.6403 74.6347 52.5965 76.7647 59.7513 77.044 61.289 70.2797 62.5177 70.0341 61.1656 70.1217 61.5321 68.0956 54.7264 68.2126 55.057 65.4714 48.4149 65.611 48.712 63.288 44.3246ZM78.1786 68.4729 78.5341 74.223 78.965 81.1922 78.9162 80.79 80.1722 87.7047 80.0846 87.3382 80.3282 88.1563 73.739 90.1179 73.4416 89.119 72.1156 81.819 71.6722 74.6473 71.3167 68.8971ZM82.2331 94.3935 84.7349 100.455 84.5953 100.158 87.9966 106.582 87.8391 106.315 91.5492 112.011 85.7883 115.763 81.9934 109.937 78.4425 103.23 75.878 97.0163ZM95.5741 117.212 96.2288 118.049 96.0409 117.828 101.092 123.271 100.889 123.069 106.38 128.076 106.159 127.89 109.89 130.757 105.701 136.209 101.855 133.254 96.1509 128.053 90.9033 122.399 90.1592 121.448ZM115.305 134.483 118 136.207 117.734 136.053 124.215 139.424 123.472 139.141 128.701 140.464 127.015 147.129 121.398 145.708 114.425 142.081 111.6 140.274ZM126.433 129.373 150.206 148.87 120.344 156.19Z" fill="#7F7F7F" transform="matrix(1.83697e-16 1 1 -1.83697e-16 2200.5 1277.5)"/><path d="M1381.5 1071.67C1381.5 1048.93 1399.93 1030.5 1422.67 1030.5L1701.33 1030.5C1724.07 1030.5 1742.5 1048.93 1742.5 1071.67L1742.5 1236.33C1742.5 1259.07 1724.07 1277.5 1701.33 1277.5L1422.67 1277.5C1399.93 1277.5 1381.5 1259.07 1381.5 1236.33Z" stroke="#000000" stroke-width="6.875" stroke-miterlimit="8" fill="#FFFFFF" fill-rule="evenodd"/><text font-family="DengXian,DengXian_MSFontService,sans-serif" font-weight="400" font-size="64" transform="matrix(1 0 0 1 1485.56 1098)">Prefix </text><text font-family="DengXian,DengXian_MSFontService,sans-serif" font-weight="400" font-size="64" transform="matrix(1 0 0 1 1476.69 1175)">Cache </text><text font-family="DengXian,DengXian_MSFontService,sans-serif" font-weight="400" font-size="64" transform="matrix(1 0 0 1 1429.98 1252)">Metadata</text><path d="M3461.5 1910.34C3461.5 1861.27 3501.27 1821.5 3550.34 1821.5L3905.66 1821.5C3954.73 1821.5 3994.5 1861.27 3994.5 1910.34L3994.5 2313.66C3994.5 2362.73 3954.73 2402.5 3905.66 2402.5L3550.34 2402.5C3501.27 2402.5 3461.5 2362.73 3461.5 2313.66Z" stroke="#042433" stroke-width="3.4375" stroke-miterlimit="8" fill="none" fill-rule="evenodd"/><text font-family="DengXian,DengXian_MSFontService,sans-serif" font-weight="700" font-size="55" transform="matrix(1 0 0 1 3563.73 1910)">DS</text><text font-family="DengXian,DengXian_MSFontService,sans-serif" font-weight="700" font-size="55" transform="matrix(1 0 0 1 3647.95 1910)">Family</text><path d="M22.9486-3.21785 43.5726-3.02031 43.5068 3.85438 22.8827 3.65684ZM50.4473-2.95446 71.0714-2.75691 71.0055 4.11777 50.3815 3.92023ZM77.946-2.69107 95.5019-2.52291 95.4361 4.35177 77.8802 4.18362ZM27.367 14.0128 0 0 27.6304-13.486ZM91.0176-12.8788 118.385 1.13392 90.7542 14.6199Z" fill="#7F7F7F" transform="matrix(-1 0 0 1 1860.88 1152.5)"/><path d="M1943.75 1870.5C1937.81 1870.5 1933 1851.25 1933 1827.5 1933 1803.75 1937.81 1784.5 1943.75 1784.5 1949.69 1784.5 1954.5 1803.75 1954.5 1827.5 1954.5 1851.25 1949.69 1870.5 1943.75 1870.5L1478.25 1870.5C1472.31 1870.5 1467.5 1851.25 1467.5 1827.5 1467.5 1803.75 1472.31 1784.5 1478.25 1784.5L1943.75 1784.5" stroke="#000000" stroke-width="6.875" stroke-miterlimit="8" fill="none" fill-rule="evenodd"/><text font-family="DengXian,DengXian_MSFontService,sans-serif" font-weight="400" font-size="48" transform="matrix(1 0 0 1 1509.7 1843)">Prefill Small Queue</text><path d="M1943.75 1992.5C1937.81 1992.5 1933 1973.25 1933 1949.5 1933 1925.75 1937.81 1906.5 1943.75 1906.5 1949.69 1906.5 1954.5 1925.75 1954.5 1949.5 1954.5 1973.25 1949.69 1992.5 1943.75 1992.5L1478.25 1992.5C1472.31 1992.5 1467.5 1973.25 1467.5 1949.5 1467.5 1925.75 1472.31 1906.5 1478.25 1906.5L1943.75 1906.5" stroke="#000000" stroke-width="6.875" stroke-miterlimit="8" fill="none" fill-rule="evenodd"/><text font-family="DengXian,DengXian_MSFontService,sans-serif" font-weight="400" font-size="48" transform="matrix(1 0 0 1 1507.98 1965)">Prefill Large Queue</text><path d="M1942.62 2111.5C1936.62 2111.5 1931.75 2092.02 1931.75 2068 1931.75 2043.98 1936.62 2024.5 1942.62 2024.5 1948.63 2024.5 1953.5 2043.98 1953.5 2068 1953.5 2092.02 1948.63 2111.5 1942.62 2111.5L1478.37 2111.5C1472.37 2111.5 1467.5 2092.02 1467.5 2068 1467.5 2043.98 1472.37 2024.5 1478.37 2024.5L1942.62 2024.5" stroke="#000000" stroke-width="6.875" stroke-miterlimit="8" fill="none" fill-rule="evenodd"/><text font-family="DengXian,DengXian_MSFontService,sans-serif" font-weight="400" font-size="48" transform="matrix(1 0 0 1 1549.08 2083)">Decode Queue</text><path d="M1397.5 1811C1397.5 1772.06 1429.06 1740.5 1468 1740.5L1946 1740.5C1984.94 1740.5 2016.5 1772.06 2016.5 1811L2016.5 2093C2016.5 2131.94 1984.94 2163.5 1946 2163.5L1468 2163.5C1429.06 2163.5 1397.5 2131.94 1397.5 2093Z" stroke="#042433" stroke-width="3.4375" stroke-miterlimit="8" fill="none" fill-rule="evenodd"/><path d="M25.7813-5.15619 156.217-5.15589 156.217 5.15661 25.7812 5.15631ZM30.9375 15.4688 0 0 30.9375-15.4687Z" transform="matrix(-1 0 0 1 2169.22 1812)"/><path d="M0.155955-3.43396 7.43367-3.10344 14.84-2.10656 21.1478-0.708229 19.6598 6.00382 13.4937 4.63689 13.7792 4.68764 6.66727 3.7304 6.96986 3.75758-0.155955 3.43396ZM28.0043 1.30793 29.4969 1.76643 36.7167 4.59319 43.8455 7.98119 47.4636 10.0031 44.1098 16.0046 40.5907 14.038 40.7921 14.1419 33.8751 10.8546 34.0974 10.9508 27.1108 8.21535 27.3547 8.30042 25.9856 7.87988ZM53.5492 13.6288 57.7793 16.3477 64.5595 21.2812 70.4507 26.0766 66.1106 31.4085 60.2916 26.6719 60.4392 26.7856 53.8146 21.9653 53.9784 22.0774 49.8318 19.4121ZM75.7166 30.763 77.6856 32.54 84.007 38.823 90.1505 45.514 90.4392 45.8573 85.1777 50.2823 84.9371 49.9963 85.0358 50.1086 78.996 43.5306 79.1047 43.6438 72.8978 37.4745 73.018 37.5883 71.1104 35.8667ZM94.8643 51.1188 96.126 52.619 107.388 67.828 107.505 68.0145 101.679 71.6645 101.633 71.5912 101.783 71.8119 90.6642 56.7958 90.796 56.9627 89.6028 55.5439ZM111.155 73.8403 117.754 84.3729 121.7 91.8445 115.621 95.0551 111.734 87.6958 111.861 87.9156 105.329 77.4906ZM124.911 97.9238 127.097 102.063 133.613 116.884 127.32 119.651 120.853 104.943 120.96 105.165 118.832 101.134ZM136.287 123.477 142.277 140.236 143.102 143.197 136.479 145.043 135.687 142.199 135.762 142.434 129.813 125.791ZM144.947 149.82 147.885 160.366 150.01 170 143.296 171.48 141.192 161.938 141.237 162.121 138.324 151.665ZM151.287 176.886 152.045 181.06 153.543 191.573 154.016 197.669 147.162 198.201 146.697 192.215 146.721 192.434 145.248 182.095 145.269 182.225 144.522 178.114ZM164.248 195.022 152.067 223.252 136.792 196.569Z" fill="#7F7F7F" transform="matrix(-1 1.22465e-16 1.22465e-16 1 2053.57 1515.5)"/><path d="M2047.5 2104.67C2047.5 2088.56 2060.56 2075.5 2076.67 2075.5L2278.33 2075.5C2294.44 2075.5 2307.5 2088.56 2307.5 2104.67L2307.5 2221.33C2307.5 2237.44 2294.44 2250.5 2278.33 2250.5L2076.67 2250.5C2060.56 2250.5 2047.5 2237.44 2047.5 2221.33Z" stroke="#000000" stroke-width="6.875" stroke-miterlimit="8" fill="none" fill-rule="evenodd"/><text font-family="DengXian,DengXian_MSFontService,sans-serif" font-weight="400" font-size="64" transform="matrix(1 0 0 1 2092.9 2146)">Mixed </text><text font-family="DengXian,DengXian_MSFontService,sans-serif" font-weight="400" font-size="64" transform="matrix(1 0 0 1 2100.05 2223)">Batch</text><path d="M2307 2157.84 2378.33 2157.84 2378.33 2168.16 2307 2168.16ZM2373.18 2147.53 2404.11 2163 2373.18 2178.47Z"/><path d="M2416.5 792.667C2416.5 776.006 2430.01 762.5 2446.67 762.5L2771.33 762.5C2787.99 762.5 2801.5 776.006 2801.5 792.667L2801.5 913.333C2801.5 929.994 2787.99 943.5 2771.33 943.5L2446.67 943.5C2430.01 943.5 2416.5 929.994 2416.5 913.333Z" stroke="#000000" stroke-width="6.875" stroke-miterlimit="8" fill="none" fill-rule="evenodd"/><text font-family="DengXian,DengXian_MSFontService,sans-serif" font-weight="400" font-size="64" transform="matrix(1 0 0 1 2475.15 874)">Tokenizer</text><path d="M25.7812-5.1562 144.876-5.15594 144.876 5.15656 25.7812 5.1563ZM30.9375 15.4688 0 0 30.9375-15.4687ZM139.72-15.4685 170.657 0.000360892 139.719 15.469Z" transform="matrix(-1 0 0 1 2416.66 853)"/><path d="M2510.5 1094.83C2510.5 1078.63 2523.63 1065.5 2539.83 1065.5L2752.17 1065.5C2768.37 1065.5 2781.5 1078.63 2781.5 1094.83L2781.5 1212.17C2781.5 1228.37 2768.37 1241.5 2752.17 1241.5L2539.83 1241.5C2523.63 1241.5 2510.5 1228.37 2510.5 1212.17Z" stroke="#000000" stroke-width="6.875" stroke-miterlimit="8" fill="#FFFFFF" fill-rule="evenodd"/><text font-family="DengXian,DengXian_MSFontService,sans-serif" font-weight="400" font-size="64" transform="matrix(1 0 0 1 2572.36 1136)">Block </text><text font-family="DengXian,DengXian_MSFontService,sans-serif" font-weight="400" font-size="64" transform="matrix(1 0 0 1 2557.76 1213)">Tables</text><path d="M2488.16 1156.83 2467.54 1156.75 2467.56 1149.87 2488.19 1149.95ZM2460.66 1156.72 2440.04 1156.65 2440.06 1149.77 2460.69 1149.85ZM2433.16 1156.62 2412.54 1156.55 2412.56 1149.67 2433.19 1149.75ZM2405.66 1156.52 2385.04 1156.45 2385.06 1149.57 2405.69 1149.65ZM2378.16 1156.42 2357.54 1156.35 2357.56 1149.47 2378.19 1149.55ZM2350.66 1156.32 2330.04 1156.24 2330.06 1149.37 2350.69 1149.45ZM2323.16 1156.22 2302.54 1156.14 2302.56 1149.27 2323.19 1149.34ZM2295.66 1156.12 2275.04 1156.04 2275.06 1149.17 2295.69 1149.24ZM2483.64 1139.62 2511.09 1153.47 2483.54 1167.12ZM2273.95 1166.35 2246.5 1152.5 2274.05 1138.85Z" fill="#7F7F7F"/><path d="M3531.5 1550.17C3531.5 1533.78 3544.78 1520.5 3561.17 1520.5L3900.83 1520.5C3917.22 1520.5 3930.5 1533.78 3930.5 1550.17L3930.5 1668.83C3930.5 1685.22 3917.22 1698.5 3900.83 1698.5L3561.17 1698.5C3544.78 1698.5 3531.5 1685.22 3531.5 1668.83Z" stroke="#000000" stroke-width="6.875" stroke-miterlimit="8" fill="none" fill-rule="evenodd"/><text font-family="DengXian,DengXian_MSFontService,sans-serif" font-weight="400" font-size="73" transform="matrix(1 0 0 1 3605.19 1633)">Executor</text><path d="M3531.5 1326.33C3531.5 1309.86 3544.86 1296.5 3561.33 1296.5L3900.67 1296.5C3917.14 1296.5 3930.5 1309.86 3930.5 1326.33L3930.5 1445.67C3930.5 1462.14 3917.14 1475.5 3900.67 1475.5L3561.33 1475.5C3544.86 1475.5 3531.5 1462.14 3531.5 1445.67Z" stroke="#000000" stroke-width="6.875" stroke-miterlimit="8" fill="none" fill-rule="evenodd"/><text font-family="DengXian,DengXian_MSFontService,sans-serif" font-weight="400" font-size="73" transform="matrix(1 0 0 1 3605.19 1409)">Executor</text><path d="M3455.5 1253.34C3455.5 1204.27 3495.27 1164.5 3544.33 1164.5L3899.66 1164.5C3948.73 1164.5 3988.5 1204.27 3988.5 1253.34L3988.5 1655.67C3988.5 1704.73 3948.73 1744.5 3899.66 1744.5L3544.33 1744.5C3495.27 1744.5 3455.5 1704.73 3455.5 1655.67Z" stroke="#042433" stroke-width="3.4375" stroke-miterlimit="8" fill="none" fill-rule="evenodd"/><text font-family="DengXian,DengXian_MSFontService,sans-serif" font-weight="700" font-size="55" transform="matrix(1 0 0 1 3557.54 1252)">Qwen Family</text><text font-family="DengXian,DengXian_MSFontService,sans-serif" font-weight="700" font-size="110" transform="matrix(1 0 0 1 2876.39 1090)">Engine</text><text font-family="DengXian,DengXian_MSFontService,sans-serif" font-weight="700" font-size="110" transform="matrix(1 0 0 1 3502.51 1090)">Executor</text></g></svg>