<svg width="3397" height="1917" xmlns="http://www.w3.org/2000/svg" xmlns:xlink="http://www.w3.org/1999/xlink" xml:space="preserve" overflow="hidden"><defs><linearGradient x1="1990.5" y1="387" x2="1990.5" y2="421" gradientUnits="userSpaceOnUse" spreadMethod="reflect" id="fill0"><stop offset="0"/><stop offset="0.00628931" stop-color="#010001"/><stop offset="0.0125786" stop-color="#030103"/><stop offset="0.0188679" stop-color="#050105"/><stop offset="0.0251572" stop-color="#070206"/><stop offset="0.0314465" stop-color="#090208"/><stop offset="0.0377358" stop-color="#0B020A"/><stop offset="0.0440252" stop-color="#0C030B"/><stop offset="0.0503145" stop-color="#0E030D"/><stop offset="0.0566038" stop-color="#10040F"/><stop offset="0.0628931" stop-color="#120410"/><stop offset="0.0691824" stop-color="#140512"/><stop offset="0.0754717" stop-color="#150514"/><stop offset="0.081761" stop-color="#170615"/><stop offset="0.0880503" stop-color="#190617"/><stop offset="0.0943396" stop-color="#1B0718"/><stop offset="0.100629" stop-color="#1C071A"/><stop offset="0.106918" stop-color="#1E081C"/><stop offset="0.113208" stop-color="#20081D"/><stop offset="0.119497" stop-color="#21091F"/><stop offset="0.125786" stop-color="#230920"/><stop offset="0.132075" stop-color="#250A22"/><stop offset="0.138365" stop-color="#260A23"/><stop offset="0.144654" stop-color="#280A25"/><stop offset="0.150943" stop-color="#2A0B26"/><stop offset="0.157233" stop-color="#2B0B28"/><stop offset="0.163522" stop-color="#2D0C29"/><stop offset="0.169811" stop-color="#2F0C2B"/><stop offset="0.176101" stop-color="#300D2C"/><stop offset="0.18239" stop-color="#320D2E"/><stop offset="0.188679" stop-color="#330D2F"/><stop offset="0.194969" stop-color="#350E31"/><stop offset="0.201258" stop-color="#370E32"/><stop offset="0.207547" stop-color="#380F33"/><stop offset="0.213836" stop-color="#3A0F35"/><stop offset="0.220126" stop-color="#3B1036"/><stop offset="0.226415" stop-color="#3D1038"/><stop offset="0.232704" stop-color="#3E1039"/><stop offset="0.238994" stop-color="#40113A"/><stop offset="0.245283" stop-color="#41113C"/><stop offset="0.251572" stop-color="#43123D"/><stop offset="0.257862" stop-color="#44123E"/><stop offset="0.264151" stop-color="#451240"/><stop offset="0.27044" stop-color="#471341"/><stop offset="0.27673" stop-color="#481342"/><stop offset="0.283019" stop-color="#4A1344"/><stop offset="0.289308" stop-color="#4B1445"/><stop offset="0.295597" stop-color="#4D1446"/><stop offset="0.301887" stop-color="#4E1548"/><stop offset="0.308176" stop-color="#4F1549"/><stop offset="0.314465" stop-color="#51154A"/><stop offset="0.320755" stop-color="#52164B"/><stop offset="0.327044" stop-color="#53164D"/><stop offset="0.333333" stop-color="#55164E"/><stop offset="0.339623" stop-color="#56174F"/><stop offset="0.345912" stop-color="#571750"/><stop offset="0.352201" stop-color="#591751"/><stop offset="0.358491" stop-color="#5A1853"/><stop offset="0.36478" stop-color="#5B1854"/><stop offset="0.371069" stop-color="#5C1855"/><stop offset="0.377358" stop-color="#5E1956"/><stop offset="0.383648" stop-color="#5F1957"/><stop offset="0.389937" stop-color="#601958"/><stop offset="0.396226" stop-color="#611A59"/><stop offset="0.402516" stop-color="#631A5B"/><stop offset="0.408805" stop-color="#641A5C"/><stop offset="0.415094" stop-color="#651B5D"/><stop offset="0.421384" stop-color="#661B5E"/><stop offset="0.427673" stop-color="#671B5F"/><stop offset="0.433962" stop-color="#681C60"/><stop offset="0.440252" stop-color="#6A1C61"/><stop offset="0.446541" stop-color="#6B1C62"/><stop offset="0.45283" stop-color="#6C1D63"/><stop offset="0.459119" stop-color="#6D1D64"/><stop offset="0.465409" stop-color="#6E1D65"/><stop offset="0.471698" stop-color="#6F1E66"/><stop offset="0.477987" stop-color="#701E67"/><stop offset="0.484277" stop-color="#711E68"/><stop offset="0.490566" stop-color="#721E69"/><stop offset="0.496855" stop-color="#731F6A"/><stop offset="0.503145" stop-color="#741F6B"/><stop offset="0.509434" stop-color="#751F6C"/><stop offset="0.515723" stop-color="#761F6D"/><stop offset="0.522013" stop-color="#77206E"/><stop offset="0.528302" stop-color="#78206F"/><stop offset="0.534591" stop-color="#79206F"/><stop offset="0.540881" stop-color="#7A2170"/><stop offset="0.54717" stop-color="#7B2171"/><stop offset="0.553459" stop-color="#7C2172"/><stop offset="0.559748" stop-color="#7D2173"/><stop offset="0.566038" stop-color="#7E2274"/><stop offset="0.572327" stop-color="#7F2275"/><stop offset="0.578616" stop-color="#802275"/><stop offset="0.584906" stop-color="#812276"/><stop offset="0.591195" stop-color="#822277"/><stop offset="0.597484" stop-color="#822378"/><stop offset="0.603774" stop-color="#832379"/><stop offset="0.610063" stop-color="#842379"/><stop offset="0.616352" stop-color="#85237A"/><stop offset="0.622642" stop-color="#86247B"/><stop offset="0.628931" stop-color="#87247C"/><stop offset="0.63522" stop-color="#87247C"/><stop offset="0.641509" stop-color="#88247D"/><stop offset="0.647799" stop-color="#89247E"/><stop offset="0.654088" stop-color="#8A257E"/><stop offset="0.660377" stop-color="#8A257F"/><stop offset="0.666667" stop-color="#8B2580"/><stop offset="0.672956" stop-color="#8C2580"/><stop offset="0.679245" stop-color="#8D2581"/><stop offset="0.685535" stop-color="#8D2682"/><stop offset="0.691824" stop-color="#8E2682"/><stop offset="0.698113" stop-color="#8F2683"/><stop offset="0.704403" stop-color="#8F2684"/><stop offset="0.710692" stop-color="#902684"/><stop offset="0.716981" stop-color="#902685"/><stop offset="0.72327" stop-color="#912785"/><stop offset="0.72956" stop-color="#922786"/><stop offset="0.735849" stop-color="#922786"/><stop offset="0.742138" stop-color="#932787"/><stop offset="0.748428" stop-color="#932787"/><stop offset="0.754717" stop-color="#942788"/><stop offset="0.761006" stop-color="#952888"/><stop offset="0.767296" stop-color="#952889"/><stop offset="0.773585" stop-color="#962889"/><stop offset="0.779874" stop-color="#96288A"/><stop offset="0.786164" stop-color="#97288A"/><stop offset="0.792453" stop-color="#97288B"/><stop offset="0.798742" stop-color="#98288B"/><stop offset="0.805031" stop-color="#98288C"/><stop offset="0.811321" stop-color="#98298C"/><stop offset="0.81761" stop-color="#99298C"/><stop offset="0.823899" stop-color="#99298D"/><stop offset="0.830189" stop-color="#9A298D"/><stop offset="0.836478" stop-color="#9A298E"/><stop offset="0.842767" stop-color="#9B298E"/><stop offset="0.849057" stop-color="#9B298E"/><stop offset="0.855346" stop-color="#9B298F"/><stop offset="0.861635" stop-color="#9C298F"/><stop offset="0.867925" stop-color="#9C2A8F"/><stop offset="0.874214" stop-color="#9C2A8F"/><stop offset="0.880503" stop-color="#9D2A90"/><stop offset="0.886792" stop-color="#9D2A90"/><stop offset="0.893082" stop-color="#9D2A90"/><stop offset="0.899371" stop-color="#9D2A91"/><stop offset="0.90566" stop-color="#9E2A91"/><stop offset="0.91195" stop-color="#9E2A91"/><stop offset="0.918239" stop-color="#9E2A91"/><stop offset="0.924528" stop-color="#9E2A91"/><stop offset="0.930818" stop-color="#9E2A92"/><stop offset="0.937107" stop-color="#9F2A92"/><stop offset="0.943396" stop-color="#9F2A92"/><stop offset="0.949686" stop-color="#9F2A92"/><stop offset="0.955975" stop-color="#9F2A92"/><stop offset="0.962264" stop-color="#9F2A92"/><stop offset="0.968553" stop-color="#9F2A92"/><stop offset="0.974843" stop-color="#9F2A92"/><stop offset="0.981132" stop-color="#9F2A92"/><stop offset="0.987421" stop-color="#9F2A92"/><stop offset="0.993711" stop-color="#9F2A92"/><stop offset="1" stop-color="#A02B93"/></linearGradient><linearGradient x1="1979.16" y1="115.489" x2="1979.16" y2="1209.99" gradientUnits="userSpaceOnUse" spreadMethod="reflect" id="fill1"><stop offset="0" stop-color="#F0F8FD"/><stop offset="0.43364" stop-color="#A02B93"/><stop offset="0.74" stop-color="#74C4E9"/><stop offset="0.83" stop-color="#74C4E9"/><stop offset="1" stop-color="#A2D8F0"/></linearGradient><linearGradient x1="1979.16" y1="115.489" x2="1979.16" y2="1209.99" gradientUnits="userSpaceOnUse" spreadMethod="reflect" id="fill2"><stop offset="0" stop-color="#F0F8FD"/><stop offset="0.43364" stop-color="#A02B93"/><stop offset="0.74" stop-color="#74C4E9"/><stop offset="0.83" stop-color="#74C4E9"/><stop offset="1" stop-color="#A2D8F0"/></linearGradient><linearGradient x1="1979.16" y1="115.489" x2="1979.16" y2="1209.99" gradientUnits="userSpaceOnUse" spreadMethod="reflect" id="fill3"><stop offset="0" stop-color="#F0F8FD"/><stop offset="0.43364" stop-color="#A02B93"/><stop offset="0.74" stop-color="#74C4E9"/><stop offset="0.83" stop-color="#74C4E9"/><stop offset="1" stop-color="#A2D8F0"/></linearGradient><linearGradient x1="1979.16" y1="115.489" x2="1979.16" y2="1209.99" gradientUnits="userSpaceOnUse" spreadMethod="reflect" id="fill4"><stop offset="0" stop-color="#F0F8FD"/><stop offset="0.43364" stop-color="#A02B93"/><stop offset="0.74" stop-color="#74C4E9"/><stop offset="0.83" stop-color="#74C4E9"/><stop offset="1" stop-color="#A2D8F0"/></linearGradient><linearGradient x1="1997.16" y1="324.013" x2="1972.84" y2="461.988" gradientUnits="userSpaceOnUse" spreadMethod="reflect" id="fill5"><stop offset="0"/><stop offset="1"/></linearGradient></defs><g transform="translate(-213 220)"><rect x="1689" y="387" width="603" height="34" fill="url(#fill0)"/><path d="M860.968 296.137 902.828 296.137 902.828 669.217 917.151 668.919C960.353 667.101 999.294 658.918 1033.97 644.371 1073.61 627.746 1107 603.477 1134.17 571.563 1161.33 539.649 1181.96 500.61 1196.07 454.446 1210.17 408.282 1217.22 355.512 1217.22 296.137L1259.97 296.137C1259.97 361.746 1251.8 420.157 1235.48 471.368 1219.15 522.578 1195.18 565.848 1163.56 601.176 1159.61 605.592 1155.54 609.876 1151.37 614.028L1138.59 626.02 1290.25 928.481 1240.37 928.481 1102.38 653.344 1096.01 657.501C1080.85 666.783 1064.7 674.875 1047.55 681.778 1007.55 697.883 962.432 706.943 912.2 708.956L902.828 709.141 902.828 928.481 860.968 928.481Z" fill="url(#fill1)" fill-rule="evenodd"/><text fill="#000000" fill-opacity="0" font-family="Arial,Arial_MSFontService,sans-serif" font-size="632.344" x="860.968" y="849.438">K</text><path d="M1747.61 375.995 2133.43 375.995 2133.43 401.108 1955.36 401.108 1955.36 928.481 1925.68 928.481 1925.68 401.108 1747.61 401.108ZM1323.34 375.995 1353.02 375.995 1459.56 706.269C1470.22 740.26 1479.98 771.334 1488.86 799.491 1497.74 827.648 1508.01 858.723 1519.68 892.714L1522.72 892.714C1534.39 858.723 1544.67 827.648 1553.54 799.491 1562.42 771.334 1572.44 740.26 1583.6 706.269L1689.38 375.995 1718.3 375.995 1535.66 928.481 1506.74 928.481Z" fill="url(#fill2)" fill-rule="evenodd"/><text fill="#000000" fill-opacity="0" font-family="Arial,Arial_MSFontService,sans-serif" font-size="552.486" x="1323.34" y="859.42">VT</text><path d="M2228.11 468.923 2251.53 468.923 2251.53 928.481 2228.11 928.481Z" fill="url(#fill3)" fill-rule="evenodd"/><text fill="#000000" fill-opacity="0" font-family="Arial,Arial_MSFontService,sans-serif" font-size="459.558" x="2228.11" y="871.036">I</text><path d="M2991.44 542.654C2967.6 542.654 2945.27 549.122 2924.47 562.059 2903.67 574.996 2886.42 593.514 2872.73 617.612 2859.03 641.711 2850.66 670.755 2847.61 704.747L3116.25 704.747C3116.25 650.462 3104.83 609.875 3082 582.987 3059.17 556.098 3028.98 542.654 2991.44 542.654ZM2544.17 542.654C2516.26 542.654 2491.02 551.025 2468.45 567.767 2445.87 584.509 2427.99 606.958 2414.8 635.115 2401.6 663.272 2395.01 694.6 2395.01 729.099 2395.01 765.627 2400.46 797.716 2411.37 825.365 2422.28 853.015 2438.13 874.577 2458.93 890.05 2479.73 905.524 2504.85 913.261 2534.27 913.261 2557.61 913.261 2580.06 907.173 2601.62 894.997 2623.18 882.821 2644.87 865.825 2666.69 844.01L2666.69 597.446C2644.87 577.66 2624.2 563.581 2604.66 555.21 2585.13 546.839 2564.97 542.654 2544.17 542.654ZM2991.44 517.541C3022.39 517.541 3049.15 524.644 3071.73 538.849 3094.3 553.054 3111.81 573.982 3124.24 601.631 3136.67 629.281 3142.88 662.892 3142.88 702.464 3142.88 706.522 3142.88 710.708 3142.88 715.02 3142.88 719.333 3142.37 724.279 3141.36 729.86L2847.61 729.86C2847.61 764.866 2854.08 796.194 2867.02 823.843 2879.96 851.493 2898.09 873.308 2921.43 889.289 2944.77 905.27 2972.16 913.261 3003.62 913.261 3026.45 913.261 3046.74 909.963 3064.5 903.368 3082.25 896.772 3098.74 887.894 3113.96 876.733L3126.14 900.324C3110.92 909.456 3093.92 918.08 3075.15 926.198 3056.38 934.315 3032.03 938.374 3002.1 938.374 2968.61 938.374 2937.92 930.003 2910.02 913.261 2882.11 896.519 2859.92 872.547 2843.43 841.346 2826.94 810.145 2818.7 772.729 2818.7 729.099 2818.7 696.122 2823.39 666.697 2832.77 640.823 2842.16 614.949 2855.1 592.753 2871.58 574.235 2888.07 555.718 2906.59 541.639 2927.14 532 2947.69 522.36 2969.12 517.541 2991.44 517.541ZM2666.69 324.247 2694.08 324.247 2694.08 928.481 2671.25 928.481 2667.45 875.211 2665.93 875.211C2649.18 891.953 2629.65 906.666 2607.33 919.349 2585.01 932.032 2559.89 938.374 2531.99 938.374 2498.51 938.374 2469.33 930.383 2444.47 914.402 2419.61 898.421 2400.34 874.83 2386.64 843.629 2372.94 812.428 2366.09 774.251 2366.09 729.099 2366.09 685.975 2374.34 648.56 2390.82 616.851 2407.31 585.143 2429.13 560.664 2456.27 543.415 2483.41 526.166 2513.22 517.541 2545.69 517.541 2570.04 517.541 2591.6 521.853 2610.37 530.478 2629.14 539.102 2648.68 551.532 2668.97 567.767L2666.69 492.428Z" fill="url(#fill4)" fill-rule="evenodd"/><text fill="#000000" fill-opacity="0" font-family="Arial,Arial_MSFontService,sans-serif" font-size="614.127" x="2366.09" y="861.608">de</text><text font-family="Cascadia Code ExtraLight,Cascadia Code ExtraLight_MSFontService,sans-serif" font-weight="200" font-size="912" transform="matrix(1 0 0 1 761.178 928)">K</text><text font-family="Noto Sans SC Thin,Noto Sans SC Thin_MSFontService,sans-serif" font-size="761" transform="matrix(1 0 0 1 1295.71 928)">VT</text><text font-family="Noto Sans SC Thin,Noto Sans SC Thin_MSFontService,sans-serif" font-size="633" transform="matrix(1 0 0 1 2136.18 928)">I</text><text font-family="Noto Sans SC Thin,Noto Sans SC Thin_MSFontService,sans-serif" font-size="761" transform="matrix(1 0 0 1 2298.89 928)">de</text><rect x="1678" y="376" width="614" height="34" fill="url(#fill5)"/></g></svg>