<svg width="2632" height="1224" xmlns="http://www.w3.org/2000/svg" xmlns:xlink="http://www.w3.org/1999/xlink" xml:space="preserve" overflow="hidden"><defs><clipPath id="clip0"><rect x="884" y="768" width="2632" height="1224"/></clipPath></defs><g clip-path="url(#clip0)" transform="translate(-884 -768)"><rect x="884" y="768" width="2632" height="1224" fill="#FFFFFF"/><text fill="#FFFFFF" font-family="DengXian,DengXian_MSFontService,sans-serif" font-weight="400" font-size="83" transform="matrix(1 0 0 1 1956.51 1358)">Runtime Stats</text><text fill="#FFFFFF" font-family="DengXian,DengXian_MSFontService,sans-serif" font-weight="400" font-size="83" transform="matrix(1 0 0 1 2035.27 1457)">Snapshot</text><path d="M2418.5 1236.67C2418.5 1202.33 2446.33 1174.5 2480.67 1174.5L3189.33 1174.5C3223.67 1174.5 3251.5 1202.33 3251.5 1236.67L3251.5 1485.33C3251.5 1519.67 3223.67 1547.5 3189.33 1547.5L2480.67 1547.5C2446.33 1547.5 2418.5 1519.67 2418.5 1485.33Z" stroke="#042433" stroke-width="3.4375" stroke-miterlimit="8" fill="#F2F2F2" fill-rule="evenodd"/><text font-family="DengXian,DengXian_MSFontService,sans-serif" font-weight="700" font-size="55" transform="matrix(1 0 0 1 2552.93 1250)">Executor 3 block table</text><path d="M2362.5 1328.67C2362.5 1294.33 2390.33 1266.5 2424.67 1266.5L3133.33 1266.5C3167.67 1266.5 3195.5 1294.33 3195.5 1328.67L3195.5 1577.33C3195.5 1611.67 3167.67 1639.5 3133.33 1639.5L2424.67 1639.5C2390.33 1639.5 2362.5 1611.67 2362.5 1577.33Z" stroke="#042433" stroke-width="3.4375" stroke-miterlimit="8" fill="#F2F2F2" fill-rule="evenodd"/><text font-family="DengXian,DengXian_MSFontService,sans-serif" font-weight="700" font-size="55" transform="matrix(1 0 0 1 2497.21 1342)">Executor 2 block table</text><path d="M2305.5 1416.67C2305.5 1382.33 2333.33 1354.5 2367.67 1354.5L3076.33 1354.5C3110.67 1354.5 3138.5 1382.33 3138.5 1416.67L3138.5 1665.33C3138.5 1699.67 3110.67 1727.5 3076.33 1727.5L2367.67 1727.5C2333.33 1727.5 2305.5 1699.67 2305.5 1665.33Z" stroke="#042433" stroke-width="3.4375" stroke-miterlimit="8" fill="#F2F2F2" fill-rule="evenodd"/><text font-family="DengXian,DengXian_MSFontService,sans-serif" font-weight="700" font-size="55" transform="matrix(1 0 0 1 2440.37 1431)">Executor 1 block table</text><text font-family="DengXian,DengXian_MSFontService,sans-serif" font-weight="700" font-size="110" transform="matrix(1 0 0 1 1602.96 1011)">Block Manager</text><rect x="2326.5" y="1487.5" width="157" height="158" stroke="#042433" stroke-width="6.875" stroke-miterlimit="8" fill="none"/><text font-family="DengXian,DengXian_MSFontService,sans-serif" font-weight="400" font-size="83" transform="matrix(1 0 0 1 2382.67 1594)">1</text><rect x="2483.5" y="1487.5" width="158" height="158" stroke="#042433" stroke-width="6.875" stroke-miterlimit="8" fill="none"/><text font-family="DengXian,DengXian_MSFontService,sans-serif" font-weight="400" font-size="83" transform="matrix(1 0 0 1 2540.34 1593)">2</text><rect x="2640.5" y="1487.5" width="157" height="158" stroke="#042433" stroke-width="6.875" stroke-miterlimit="8" fill="none"/><text font-family="DengXian,DengXian_MSFontService,sans-serif" font-weight="400" font-size="83" transform="matrix(1 0 0 1 2696.88 1594)">3</text><rect x="2797.5" y="1487.5" width="158" height="158" stroke="#042433" stroke-width="6.875" stroke-miterlimit="8" fill="none"/><text font-family="DengXian,DengXian_MSFontService,sans-serif" font-weight="400" font-size="83" transform="matrix(1 0 0 1 2848.82 1593)">···</text><rect x="2954.5" y="1487.5" width="157" height="158" stroke="#042433" stroke-width="6.875" stroke-miterlimit="8" fill="none"/><text font-family="DengXian,DengXian_MSFontService,sans-serif" font-weight="400" font-size="83" transform="matrix(1 0 0 1 3009.82 1594)">n</text><path d="M2262.5 1240C2262.5 1180.63 2310.63 1132.5 2370 1132.5L3187 1132.5C3246.37 1132.5 3294.5 1180.63 3294.5 1240L3294.5 1670C3294.5 1729.37 3246.37 1777.5 3187 1777.5L2370 1777.5C2310.63 1777.5 2262.5 1729.37 2262.5 1670Z" stroke="#000000" stroke-width="4.58333" stroke-miterlimit="8" fill="none" fill-rule="evenodd"/><path d="M1213.5 1180.67C1213.5 1168.42 1223.42 1158.5 1235.67 1158.5L1607.33 1158.5C1619.58 1158.5 1629.5 1168.42 1629.5 1180.67L1629.5 1269.33C1629.5 1281.58 1619.58 1291.5 1607.33 1291.5L1235.67 1291.5C1223.42 1291.5 1213.5 1281.58 1213.5 1269.33Z" stroke="#000000" stroke-width="6.875" stroke-miterlimit="8" fill="none" fill-rule="evenodd"/><text font-family="DengXian,DengXian_MSFontService,sans-serif" font-weight="400" font-size="64" transform="matrix(1 0 0 1 1285.89 1246)">Executor</text><text font-family="DengXian,DengXian_MSFontService,sans-serif" font-weight="400" font-size="64" transform="matrix(1 0 0 1 1540.84 1246)">1</text><path d="M1214.5 1402.67C1214.5 1390.42 1224.42 1380.5 1236.67 1380.5L1609.33 1380.5C1621.58 1380.5 1631.5 1390.42 1631.5 1402.67L1631.5 1491.33C1631.5 1503.58 1621.58 1513.5 1609.33 1513.5L1236.67 1513.5C1224.42 1513.5 1214.5 1503.58 1214.5 1491.33Z" stroke="#000000" stroke-width="6.875" stroke-miterlimit="8" fill="none" fill-rule="evenodd"/><text font-family="DengXian,DengXian_MSFontService,sans-serif" font-weight="400" font-size="64" transform="matrix(1 0 0 1 1287.04 1468)">Executor</text><text font-family="DengXian,DengXian_MSFontService,sans-serif" font-weight="400" font-size="64" transform="matrix(1 0 0 1 1541.99 1468)">2</text><path d="M1216.5 1625.67C1216.5 1613.42 1226.42 1603.5 1238.67 1603.5L1610.33 1603.5C1622.58 1603.5 1632.5 1613.42 1632.5 1625.67L1632.5 1714.33C1632.5 1726.58 1622.58 1736.5 1610.33 1736.5L1238.67 1736.5C1226.42 1736.5 1216.5 1726.58 1216.5 1714.33Z" stroke="#000000" stroke-width="6.875" stroke-miterlimit="8" fill="none" fill-rule="evenodd"/><text font-family="DengXian,DengXian_MSFontService,sans-serif" font-weight="400" font-size="64" transform="matrix(1 0 0 1 1288.61 1691)">Executor</text><text font-family="DengXian,DengXian_MSFontService,sans-serif" font-weight="400" font-size="64" transform="matrix(1 0 0 1 1543.55 1691)">3</text><path d="M1640.5 1215.5C1660.93 1215.5 1677.5 1218.26 1677.5 1221.67L1677.5 1447.33C1677.5 1450.74 1694.07 1453.5 1714.5 1453.5 1694.07 1453.5 1677.5 1456.26 1677.5 1459.67L1677.5 1685.33C1677.5 1688.74 1660.93 1691.5 1640.5 1691.5" stroke="#000000" stroke-width="6.875" stroke-miterlimit="8" fill="none" fill-rule="evenodd"/><text font-family="DengXian,DengXian_MSFontService,sans-serif" font-weight="700" font-size="55" transform="matrix(1 0 0 1 1738.22 1464)">GetRuntimeStats</text><text font-family="DengXian,DengXian_MSFontService,sans-serif" font-weight="700" font-size="55" transform="matrix(1 0 0 1 2158.74 1464)">()</text><text font-family="DengXian,DengXian_MSFontService,sans-serif" font-weight="700" font-size="110" transform="matrix(1 0 0 1 1790.03 1344)">Engine</text><path d="M2200.5 1451.21 2234.86 1451.21 2234.86 1455.79 2200.5 1455.79ZM2230.28 1439.75 2257.78 1453.5 2230.28 1467.25Z"/></g></svg>