<svg width="4270" height="1689" xmlns="http://www.w3.org/2000/svg" xmlns:xlink="http://www.w3.org/1999/xlink" xml:space="preserve" overflow="hidden"><defs><clipPath id="clip0"><rect x="64" y="592" width="4270" height="1689"/></clipPath></defs><g clip-path="url(#clip0)" transform="translate(-64 -592)"><rect x="63.9999" y="592" width="4270" height="1689" fill="#FFFFFF"/><path d="M3331 1525.83C3331 1513.78 3340.78 1504 3352.83 1504L3913.17 1504C3925.22 1504 3935 1513.78 3935 1525.83L3935 1613.17C3935 1625.22 3925.22 1635 3913.17 1635L3352.83 1635C3340.78 1635 3331 1625.22 3331 1613.17Z" fill="#FFFFFF" fill-rule="evenodd"/><text font-family="DengXian,DengXian_MSFontService,sans-serif" font-weight="400" font-size="50" transform="matrix(1 0 0 1 3394.97 1586)">DecodeChunk</text><text font-family="DengXian,DengXian_MSFontService,sans-serif" font-weight="400" font-size="50" transform="matrix(1 0 0 1 3699.76 1586)">, </text><text font-family="DengXian,DengXian_MSFontService,sans-serif" font-weight="700" font-size="50" transform="matrix(1 0 0 1 3724.39 1586)">!done</text><path d="M111.5 1172.33C111.5 1155.86 124.857 1142.5 141.334 1142.5L536.666 1142.5C553.143 1142.5 566.5 1155.86 566.5 1172.33L566.5 1291.67C566.5 1308.14 553.143 1321.5 536.666 1321.5L141.334 1321.5C124.857 1321.5 111.5 1308.14 111.5 1291.67Z" stroke="#042433" stroke-width="6.875" stroke-miterlimit="8" fill="#FFFFFF" fill-rule="evenodd"/><text font-family="DengXian,DengXian_MSFontService,sans-serif" font-weight="400" font-size="73" transform="matrix(1 0 0 1 211.194 1226)">Queued</text><text font-family="DengXian,DengXian_MSFontService,sans-serif" font-weight="400" font-size="48" transform="matrix(1 0 0 1 155.621 1291)">R</text><text font-family="DengXian,DengXian_MSFontService,sans-serif" font-weight="400" font-size="48" transform="matrix(1 0 0 1 183.121 1291)">equest accepted</text><path d="M738.5 1172.33C738.5 1155.86 751.857 1142.5 768.334 1142.5L1258.67 1142.5C1275.14 1142.5 1288.5 1155.86 1288.5 1172.33L1288.5 1291.67C1288.5 1308.14 1275.14 1321.5 1258.67 1321.5L768.334 1321.5C751.857 1321.5 738.5 1308.14 738.5 1291.67Z" stroke="#042433" stroke-width="6.875" stroke-miterlimit="8" fill="#FFFFFF" fill-rule="evenodd"/><text font-family="DengXian,DengXian_MSFontService,sans-serif" font-weight="400" font-size="73" transform="matrix(1 0 0 1 818.953 1226)">Prefill Ready</text><text font-family="DengXian,DengXian_MSFontService,sans-serif" font-weight="400" font-size="48" transform="matrix(1 0 0 1 788.588 1291)">prefill work enqueued</text><path d="M1453.5 1176.33C1453.5 1159.86 1466.86 1146.5 1483.33 1146.5L2023.67 1146.5C2040.14 1146.5 2053.5 1159.86 2053.5 1176.33L2053.5 1295.67C2053.5 1312.14 2040.14 1325.5 2023.67 1325.5L1483.33 1325.5C1466.86 1325.5 1453.5 1312.14 1453.5 1295.67Z" stroke="#E97132" stroke-width="6.875" stroke-miterlimit="8" fill="#FFFFFF" fill-rule="evenodd"/><text font-family="DengXian,DengXian_MSFontService,sans-serif" font-weight="400" font-size="73" transform="matrix(1 0 0 1 1524.43 1238)">Prefill Running</text><text font-family="DengXian,DengXian_MSFontService,sans-serif" font-weight="400" font-size="37" transform="matrix(1 0 0 1 1505.8 1292)">executor builds prompt context</text><path d="M2227.5 1175.67C2227.5 1159.56 2240.56 1146.5 2256.67 1146.5L2799.33 1146.5C2815.44 1146.5 2828.5 1159.56 2828.5 1175.67L2828.5 1292.33C2828.5 1308.44 2815.44 1321.5 2799.33 1321.5L2256.67 1321.5C2240.56 1321.5 2227.5 1308.44 2227.5 1292.33Z" stroke="#042433" stroke-width="6.875" stroke-miterlimit="8" fill="#FFFFFF" fill-rule="evenodd"/><text font-family="DengXian,DengXian_MSFontService,sans-serif" font-weight="400" font-size="73" transform="matrix(1 0 0 1 2298.61 1228)">Decode Ready</text><text font-family="DengXian,DengXian_MSFontService,sans-serif" font-weight="400" font-size="48" transform="matrix(1 0 0 1 2283.43 1293)">decode work enqueued</text><path d="M3002.5 1173.5C3002.5 1156.93 3015.93 1143.5 3032.5 1143.5L3591.5 1143.5C3608.07 1143.5 3621.5 1156.93 3621.5 1173.5L3621.5 1293.5C3621.5 1310.07 3608.07 1323.5 3591.5 1323.5L3032.5 1323.5C3015.93 1323.5 3002.5 1310.07 3002.5 1293.5Z" stroke="#E97132" stroke-width="6.875" stroke-miterlimit="8" fill="#FFFFFF" fill-rule="evenodd"/><text font-family="DengXian,DengXian_MSFontService,sans-serif" font-weight="400" font-size="73" transform="matrix(1 0 0 1 3048.38 1228)">Decode Running</text><text font-family="DengXian,DengXian_MSFontService,sans-serif" font-weight="400" font-size="48" transform="matrix(1 0 0 1 3066.14 1293)">streaming token chunks</text><path d="M3798.5 1173.5C3798.5 1156.93 3811.93 1143.5 3828.5 1143.5L4273.5 1143.5C4290.07 1143.5 4303.5 1156.93 4303.5 1173.5L4303.5 1293.5C4303.5 1310.07 4290.07 1323.5 4273.5 1323.5L3828.5 1323.5C3811.93 1323.5 3798.5 1310.07 3798.5 1293.5Z" stroke="#4EA72E" stroke-width="6.875" stroke-miterlimit="8" fill="#FFFFFF" fill-rule="evenodd"/><text font-family="DengXian,DengXian_MSFontService,sans-serif" font-weight="400" font-size="73" transform="matrix(1 0 0 1 3921.31 1228)">Finished</text><text font-family="DengXian,DengXian_MSFontService,sans-serif" font-weight="400" font-size="48" transform="matrix(1 0 0 1 3840.82 1293)">response completed</text><path d="M1292 1229 1413.63 1229 1413.63 1216 1456 1242 1413.63 1268 1413.63 1255 1292 1255Z" fill="#747474" fill-rule="evenodd"/><path d="M487.5 1421C487.5 1412.99 493.992 1406.5 502 1406.5L749 1406.5C757.008 1406.5 763.5 1412.99 763.5 1421L763.5 1479C763.5 1487.01 757.008 1493.5 749 1493.5L502 1493.5C493.992 1493.5 487.5 1487.01 487.5 1479Z" stroke="#042433" stroke-width="6.875" stroke-miterlimit="8" fill="#FFFFFF" fill-rule="evenodd"/><text font-family="DengXian,DengXian_MSFontService,sans-serif" font-weight="400" font-size="64" transform="matrix(1 0 0 1 534.906 1471)">Create</text><path d="M738.5 733.334C738.5 717.409 751.409 704.5 767.334 704.5L1263.67 704.5C1279.59 704.5 1292.5 717.409 1292.5 733.334L1292.5 848.666C1292.5 864.591 1279.59 877.5 1263.67 877.5L767.334 877.5C751.409 877.5 738.5 864.591 738.5 848.666Z" stroke="#042433" stroke-width="6.875" stroke-miterlimit="8" fill="#FFFFFF" fill-rule="evenodd"/><text font-family="DengXian,DengXian_MSFontService,sans-serif" font-weight="400" font-size="73" transform="matrix(1 0 0 1 928.23 771)">Prefix</text><text font-family="DengXian,DengXian_MSFontService,sans-serif" font-weight="400" font-size="73" transform="matrix(1 0 0 1 791.303 859)">Cache </text><text font-family="DengXian,DengXian_MSFontService,sans-serif" font-weight="400" font-size="73" transform="matrix(1 0 0 1 1004.43 859)">Lookup</text><path d="M3652.71 1304.03 3664.92 1306.55 3675.94 1310.58 3686.36 1315.6 3696.2 1321.58 3705.38 1328.45 3713.85 1336.15 3721.55 1344.62 3728.42 1353.8 3734.4 1363.64 3739.42 1374.07 3743.43 1385.03 3746.37 1396.46 3748.18 1408.31 3748.79 1420.5 3748.18 1432.69 3746.37 1444.54 3743.43 1455.97 3739.42 1466.94 3734.4 1477.36 3728.42 1487.2 3721.55 1496.38 3713.85 1504.85 3705.38 1512.55 3696.2 1519.42 3686.36 1525.4 3675.94 1530.42 3664.97 1534.43 3653.54 1537.37 3641.69 1539.18 3629.5 1539.79 3617.31 1539.18 3605.46 1537.37 3594.03 1534.43 3583.07 1530.42 3572.64 1525.4 3562.8 1519.42 3553.62 1512.55 3545.15 1504.85 3537.45 1496.38 3530.58 1487.2 3524.6 1477.36 3519.58 1466.94 3515.57 1455.97 3512.63 1444.54 3510.82 1432.69 3510.21 1420.52 3510.42 1413.33 3511.06 1406.24 3512.12 1399.23 3513.58 1392.32 3515.44 1385.54 3517.71 1378.86 3523.34 1366.08 3530.45 1354.02 3538.95 1342.84 3548.77 1332.67 3559.75 1323.73 3562.64 1327.29 3551.77 1336.13 3551.97 1335.95 3542.34 1345.92 3542.51 1345.72 3534.18 1356.68 3534.33 1356.46 3527.36 1368.29 3527.48 1368.05 3521.94 1380.62 3522.02 1380.43 3519.81 1386.95 3519.85 1386.82 3518.02 1393.47 3518.05 1393.34 3516.62 1400.11 3516.64 1399.98 3515.6 1406.85 3515.62 1406.71 3514.99 1413.68 3515 1413.54 3514.79 1420.57 3514.79 1420.38 3515.39 1432.35 3515.37 1432.12 3517.14 1443.73 3517.1 1443.51 3519.98 1454.72 3519.91 1454.5 3523.85 1465.25 3523.76 1465.05 3528.69 1475.27 3528.58 1475.08 3534.44 1484.73 3534.32 1484.54 3541.05 1493.55 3540.91 1493.38 3548.46 1501.69 3548.31 1501.54 3556.62 1509.09 3556.45 1508.95 3565.46 1515.68 3565.27 1515.56 3574.92 1521.42 3574.73 1521.31 3584.95 1526.24 3584.75 1526.15 3595.5 1530.09 3595.28 1530.02 3606.49 1532.9 3606.27 1532.86 3617.88 1534.63 3617.65 1534.61 3629.62 1535.21 3629.38 1535.21 3641.35 1534.61 3641.12 1534.63 3652.73 1532.86 3652.51 1532.9 3663.72 1530.02 3663.5 1530.09 3674.25 1526.15 3674.05 1526.24 3684.27 1521.31 3684.08 1521.42 3693.73 1515.56 3693.54 1515.68 3702.55 1508.95 3702.38 1509.09 3710.69 1501.54 3710.54 1501.69 3718.09 1493.38 3717.95 1493.55 3724.68 1484.54 3724.56 1484.73 3730.42 1475.08 3730.31 1475.27 3735.24 1465.05 3735.15 1465.25 3739.09 1454.5 3739.02 1454.72 3741.9 1443.51 3741.86 1443.73 3743.63 1432.12 3743.61 1432.35 3744.21 1420.38 3744.21 1420.62 3743.61 1408.65 3743.63 1408.88 3741.86 1397.27 3741.9 1397.49 3739.02 1386.28 3739.09 1386.5 3735.15 1375.75 3735.24 1375.95 3730.31 1365.73 3730.42 1365.92 3724.56 1356.27 3724.68 1356.46 3717.95 1347.45 3718.09 1347.62 3710.54 1339.31 3710.69 1339.46 3702.38 1331.91 3702.55 1332.05 3693.54 1325.32 3693.73 1325.44 3684.08 1319.58 3684.27 1319.69 3674.05 1314.76 3674.25 1314.85 3663.5 1310.91 3663.83 1311 3651.79 1308.52ZM3655.13 1320.48 3629.5 1303.5 3658.46 1293.18Z"/><path d="M2400.5 1646.67C2400.5 1634.42 2410.42 1624.5 2422.67 1624.5L2763.33 1624.5C2775.58 1624.5 2785.5 1634.42 2785.5 1646.67L2785.5 1735.33C2785.5 1747.58 2775.58 1757.5 2763.33 1757.5L2422.67 1757.5C2410.42 1757.5 2400.5 1747.58 2400.5 1735.33Z" stroke="#C00000" stroke-width="6.875" stroke-miterlimit="8" fill="#FFFFFF" fill-rule="evenodd"/><text font-family="DengXian,DengXian_MSFontService,sans-serif" font-weight="400" font-size="73" transform="matrix(1 0 0 1 2462.64 1715)">Timeout</text><path d="M2400.5 1839.67C2400.5 1827.42 2410.42 1817.5 2422.67 1817.5L2763.33 1817.5C2775.58 1817.5 2785.5 1827.42 2785.5 1839.67L2785.5 1928.33C2785.5 1940.58 2775.58 1950.5 2763.33 1950.5L2422.67 1950.5C2410.42 1950.5 2400.5 1940.58 2400.5 1928.33Z" stroke="#C00000" stroke-width="6.875" stroke-miterlimit="8" fill="#FFFFFF" fill-rule="evenodd"/><text font-family="DengXian,DengXian_MSFontService,sans-serif" font-weight="400" font-size="73" transform="matrix(1 0 0 1 2500.16 1907)">Failed</text><path d="M2400.5 2048.67C2400.5 2036.42 2410.42 2026.5 2422.67 2026.5L2763.33 2026.5C2775.58 2026.5 2785.5 2036.42 2785.5 2048.67L2785.5 2137.33C2785.5 2149.58 2775.58 2159.5 2763.33 2159.5L2422.67 2159.5C2410.42 2159.5 2400.5 2149.58 2400.5 2137.33Z" stroke="#C00000" stroke-width="6.875" stroke-miterlimit="8" fill="#FFFFFF" fill-rule="evenodd"/><text font-family="DengXian,DengXian_MSFontService,sans-serif" font-weight="400" font-size="73" transform="matrix(1 0 0 1 2447.74 2117)">Canceled</text><path d="M566 1222.25 686.814 1222.25 686.814 1209 730 1235.5 686.814 1262 686.814 1248.75 566 1248.75Z" fill="#747474" fill-rule="evenodd"/><path d="M2059 1229 2180.63 1229 2180.63 1216 2223 1242 2180.63 1268 2180.63 1255 2059 1255Z" fill="#747474" fill-rule="evenodd"/><path d="M2830 1224 2951.63 1224 2951.63 1211 2994 1237 2951.63 1263 2951.63 1250 2830 1250Z" fill="#747474" fill-rule="evenodd"/><path d="M3625 1224 3746.63 1224 3746.63 1211 3789 1237 3746.63 1263 3746.63 1250 3625 1250Z" fill="#747474" fill-rule="evenodd"/><path d="M121 1401.17C121 1388.92 130.924 1379 143.167 1379L438.833 1379C451.075 1379 461 1388.92 461 1401.17L461 1489.83C461 1502.08 451.075 1512 438.833 1512L143.167 1512C130.924 1512 121 1502.08 121 1489.83Z" fill="#FFFFFF" fill-rule="evenodd"/><text font-family="DengXian,DengXian_MSFontService,sans-serif" font-weight="700" font-size="83" transform="matrix(1 0 0 1 169.843 1473)">Events</text><path d="M1167.5 1422.83C1167.5 1413.81 1174.81 1406.5 1183.83 1406.5L1551.17 1406.5C1560.19 1406.5 1567.5 1413.81 1567.5 1422.83L1567.5 1488.17C1567.5 1497.19 1560.19 1504.5 1551.17 1504.5L1183.83 1504.5C1174.81 1504.5 1167.5 1497.19 1167.5 1488.17Z" stroke="#042433" stroke-width="6.875" stroke-miterlimit="8" fill="#FFFFFF" fill-rule="evenodd"/><text font-family="DengXian,DengXian_MSFontService,sans-serif" font-weight="400" font-size="48" transform="matrix(1 0 0 1 1244.66 1471)">PrefillChunk</text><path d="M1944.5 1436.83C1944.5 1427.81 1951.81 1420.5 1960.83 1420.5L2313.17 1420.5C2322.19 1420.5 2329.5 1427.81 2329.5 1436.83L2329.5 1502.17C2329.5 1511.19 2322.19 1518.5 2313.17 1518.5L1960.83 1518.5C1951.81 1518.5 1944.5 1511.19 1944.5 1502.17Z" stroke="#042433" stroke-width="6.875" stroke-miterlimit="8" fill="#FFFFFF" fill-rule="evenodd"/><text font-family="DengXian,DengXian_MSFontService,sans-serif" font-weight="400" font-size="48" transform="matrix(1 0 0 1 1995.2 1485)">PrefillFinished</text><path d="M2703.5 1442.83C2703.5 1433.81 2710.81 1426.5 2719.83 1426.5L3092.17 1426.5C3101.19 1426.5 3108.5 1433.81 3108.5 1442.83L3108.5 1508.17C3108.5 1517.19 3101.19 1524.5 3092.17 1524.5L2719.83 1524.5C2710.81 1524.5 2703.5 1517.19 2703.5 1508.17Z" stroke="#042433" stroke-width="6.875" stroke-miterlimit="8" fill="#FFFFFF" fill-rule="evenodd"/><text font-family="DengXian,DengXian_MSFontService,sans-serif" font-weight="400" font-size="48" transform="matrix(1 0 0 1 2760.71 1491)">DecodeChunk</text><path d="M2.29167-5.04047e-06 2.29198 141.164-2.29136 141.164-2.29167 5.04047e-06ZM13.7503 136.581 0.000360892 164.081-13.7497 136.581Z" fill="#3A3A3A" transform="matrix(1 0 0 -1 625.5 1406.58)"/><path d="M2.29167-5.34431e-06 2.29197 131.836-2.29136 131.836-2.29167 5.34431e-06ZM13.7503 127.252 0.000360892 154.752-13.7497 127.252Z" fill="#3A3A3A" transform="matrix(1 0 0 -1 1367.5 1406.25)"/><path d="M2135.23 1416.66 2135.21 1274.42 2139.79 1274.42 2139.81 1416.66ZM2123.75 1279 2137.5 1251.5 2151.25 1279Z" fill="#3A3A3A"/><path d="M2904.23 1426.6 2904.21 1274.42 2908.79 1274.42 2908.81 1426.6ZM2892.75 1279 2906.5 1251.5 2920.25 1279Z" fill="#3A3A3A"/><path d="M1.51336-1.7209 15.2805 10.386 12.2538 13.8278-1.51336 1.7209ZM25.6059 19.4661 39.3731 31.573 36.3463 35.0148 22.5792 22.9079ZM49.6984 40.6532 63.4656 52.76 60.4389 56.2018 46.6717 44.0949ZM73.791 61.8402 87.5581 73.947 84.5314 77.3888 70.7642 65.282ZM97.8835 83.0272 111.651 95.1341 108.624 98.5759 94.8568 86.469ZM121.976 104.214 135.743 116.321 132.716 119.763 118.949 107.656ZM146.069 125.401 159.836 137.508 156.809 140.95 143.042 128.843ZM170.161 146.588 183.928 158.695 180.902 162.137 167.134 150.03ZM194.254 167.775 208.021 179.882 204.994 183.324 191.227 171.217ZM218.346 188.962 232.113 201.069 229.087 204.511 215.319 192.404ZM242.439 210.149 256.206 222.256 253.179 225.698 239.412 213.591ZM266.531 231.336 280.298 243.443 277.272 246.885 263.505 234.778ZM290.624 252.523 304.391 264.63 301.364 268.072 287.597 255.965ZM314.716 273.71 328.483 285.817 325.457 289.259 311.69 277.152ZM338.809 294.897 352.576 307.004 349.549 310.446 335.782 298.339ZM362.901 316.084 376.669 328.191 373.642 331.633 359.875 319.526ZM387.641 322.582 399.212 351.068 369.481 343.233Z" fill="#747474" transform="matrix(1 0 0 -1 339.5 1142.57)"/><path d="M1293.13 789.298 1310.75 794.367 1309.48 798.772 1291.87 793.703ZM1323.97 798.169 1341.58 803.238 1340.32 807.642 1322.7 802.573ZM1354.8 807.039 1372.42 812.108 1371.15 816.513 1353.53 811.444ZM1385.63 815.91 1403.25 820.979 1401.98 825.384 1384.36 820.315ZM1416.46 824.781 1434.08 829.85 1432.82 834.255 1415.2 829.186ZM1447.3 833.652 1464.92 838.721 1463.65 843.125 1446.03 838.056ZM1478.13 842.522 1495.75 847.591 1494.48 851.996 1476.86 846.927ZM1508.96 851.393 1526.58 856.462 1525.31 860.867 1507.69 855.798ZM1539.79 860.264 1557.41 865.333 1556.15 869.738 1538.53 864.669ZM1570.63 869.135 1588.25 874.204 1586.98 878.608 1569.36 873.539ZM1601.46 878.005 1619.08 883.074 1617.81 887.479 1600.19 882.41ZM1632.29 886.876 1649.91 891.945 1648.64 896.35 1631.03 891.281ZM1663.12 895.747 1680.74 900.816 1679.48 905.221 1661.86 900.152ZM1693.96 904.618 1711.58 909.687 1710.31 914.091 1692.69 909.022ZM1724.79 913.489 1742.41 918.557 1741.14 922.962 1723.52 917.893ZM1755.62 922.359 1773.24 927.428 1771.97 931.833 1754.36 926.764ZM1786.46 931.23 1804.07 936.299 1802.81 940.704 1785.19 935.635ZM1817.29 940.101 1834.91 945.17 1833.64 949.574 1816.02 944.505ZM1848.12 948.972 1865.74 954.041 1864.47 958.445 1846.85 953.376ZM1878.95 957.842 1896.57 962.911 1895.3 967.316 1877.69 962.247ZM1909.79 966.713 1927.4 971.782 1926.14 976.187 1908.52 971.118ZM1940.62 975.584 1958.24 980.653 1956.97 985.057 1939.35 979.989ZM1971.45 984.455 1989.07 989.524 1987.8 993.928 1970.18 988.859ZM2002.28 993.325 2019.9 998.394 2018.64 1002.8 2001.02 997.73ZM2033.12 1002.2 2050.73 1007.27 2049.47 1011.67 2031.85 1006.6ZM2063.95 1011.07 2081.57 1016.14 2080.3 1020.54 2062.68 1015.47ZM2094.78 1019.94 2112.4 1025.01 2111.13 1029.41 2093.51 1024.34ZM2125.61 1028.81 2143.23 1033.88 2141.97 1038.28 2124.35 1033.21ZM2156.45 1037.68 2174.07 1042.75 2172.8 1047.15 2155.18 1042.08ZM2187.28 1046.55 2204.9 1051.62 2203.63 1056.02 2186.01 1050.95ZM2218.11 1055.42 2235.73 1060.49 2234.46 1064.89 2216.84 1059.83ZM2248.94 1064.29 2266.56 1069.36 2265.3 1073.77 2247.68 1068.7ZM2279.78 1073.16 2297.4 1078.23 2296.13 1082.64 2278.51 1077.57ZM2310.61 1082.03 2328.23 1087.1 2326.96 1091.51 2309.34 1086.44ZM2341.44 1090.9 2359.06 1095.97 2357.79 1100.38 2340.18 1095.31ZM2372.27 1099.77 2389.89 1104.84 2388.63 1109.25 2371.01 1104.18ZM2403.11 1108.65 2420.73 1113.71 2419.46 1118.12 2401.84 1113.05ZM2433.94 1117.52 2451.56 1122.59 2450.29 1126.99 2432.67 1121.92ZM2464.77 1126.39 2482.39 1131.46 2481.12 1135.86 2463.51 1130.79ZM2495.61 1135.26 2506.15 1138.29 2504.88 1142.7 2494.34 1139.66ZM2504.91 1126.01 2527.54 1146.83 2497.31 1152.44Z" fill="#747474"/><path d="M2.29161-0.0160523 2.42003 18.3168-2.16319 18.3489-2.29161 0.0160523ZM2.51634 32.0665 2.64476 50.3994-1.93846 50.4315-2.06688 32.0986ZM2.74108 64.149 2.86949 82.4819-1.71373 82.514-1.84215 64.1812ZM2.96581 96.2316 3.09423 114.564-1.489 114.597-1.61741 96.2637ZM3.19054 128.314 3.31896 146.647-1.26426 146.679-1.39268 128.346ZM3.41527 160.397 3.54369 178.73-1.03953 178.762-1.16795 160.429ZM3.64 192.479 3.76842 210.812-0.814799 210.844-0.943217 192.511ZM3.86474 224.562 3.98644 241.936-0.596785 241.968-0.718485 224.594ZM15.4124 237.272 1.85535 264.868-12.0869 237.465Z" fill="#747474" transform="matrix(-1 0 0 1 1015.36 877.5)"/><text fill="#747474" font-family="DengXian,DengXian_MSFontService,sans-serif" font-weight="400" font-size="64" transform="matrix(1 0 0 1 1040.96 1031)">cache miss / partial hit </text><text fill="#747474" font-family="DengXian,DengXian_MSFontService,sans-serif" font-weight="400" font-size="64" transform="matrix(0.96169 0.274138 -0.274138 0.96169 1732.6 887)">full hit </text><path d="M1532.5 1839.67C1532.5 1827.42 1542.42 1817.5 1554.67 1817.5L2110.33 1817.5C2122.58 1817.5 2132.5 1827.42 2132.5 1839.67L2132.5 1928.33C2132.5 1940.58 2122.58 1950.5 2110.33 1950.5L1554.67 1950.5C1542.42 1950.5 1532.5 1940.58 1532.5 1928.33Z" stroke="#042433" stroke-width="6.875" stroke-miterlimit="8" fill="#FFFFFF" fill-rule="evenodd"/><text font-family="DengXian,DengXian_MSFontService,sans-serif" font-weight="400" font-size="73" transform="matrix(1 0 0 1 1584.84 1907)">Any active </text><text font-family="DengXian,DengXian_MSFontService,sans-serif" font-weight="400" font-size="73" transform="matrix(1 0 0 1 1928.02 1907)">state</text><text fill="#747474" font-family="DengXian,DengXian_MSFontService,sans-serif" font-weight="400" font-size="64" transform="matrix(0.749039 -0.662526 0.662526 0.749039 396 1057)">cache_key</text><path d="M2.0112-2.78774 250.917 176.785 246.895 182.36-2.0112 2.78774ZM253.234 165.74 267.491 192.98 237.144 188.042Z" fill="#C00000" transform="matrix(1 0 0 -1 2132.5 1884.48)"/><path d="M2132.5 1880.06 2377.07 1880.06 2377.07 1886.94 2132.5 1886.94ZM2372.49 1869.75 2399.99 1883.5 2372.49 1897.25Z" fill="#C00000"/><path d="M2134.62 1880.79 2384.05 2075.77 2379.82 2081.19 2130.38 1886.21ZM2386.79 2064.83 2399.99 2092.59 2369.86 2086.49Z" fill="#C00000"/></g></svg>