<svg width="3791" height="2036" xmlns="http://www.w3.org/2000/svg" xmlns:xlink="http://www.w3.org/1999/xlink" xml:space="preserve" overflow="hidden"><defs><clipPath id="clip0"><rect x="305" y="439" width="3791" height="2036"/></clipPath></defs><g clip-path="url(#clip0)" transform="translate(-305 -439)"><rect x="305" y="439" width="3791" height="2036" fill="#FFFFFF"/><path d="M1734.5 532.167C1734.5 519.096 1745.1 508.5 1758.17 508.5L2349.83 508.5C2362.9 508.5 2373.5 519.096 2373.5 532.167L2373.5 626.833C2373.5 639.904 2362.9 650.5 2349.83 650.5L1758.17 650.5C1745.1 650.5 1734.5 639.904 1734.5 626.833Z" stroke="#042433" stroke-width="6.875" stroke-miterlimit="8" fill="#FFFFFF" fill-rule="evenodd"/><text font-family="DengXian,DengXian_MSFontService,sans-serif" font-weight="400" font-size="83" transform="matrix(1 0 0 1 1777.41 607)">Inference Client</text><path d="M1305.5 986.005C1305.5 830.534 1429.77 704.5 1583.06 704.5L3021.44 704.5C3174.73 704.5 3298.99 830.534 3298.99 986.005 3298.99 1361.34 3302.5 1800.67 3302.5 2176 3302.5 2331.47 3244.85 2393.5 3091.56 2393.5L1583.06 2393.5C1429.77 2393.5 1305.5 2267.47 1305.5 2111.99L1305.5 986.005Z" stroke="#042433" stroke-width="3.4375" stroke-miterlimit="8" fill="none" fill-rule="evenodd"/><path d="M1861.5 789.667C1861.5 773.006 1875.01 759.5 1891.67 759.5L2216.33 759.5C2232.99 759.5 2246.5 773.006 2246.5 789.667L2246.5 910.333C2246.5 926.994 2232.99 940.5 2216.33 940.5L1891.67 940.5C1875.01 940.5 1861.5 926.994 1861.5 910.333Z" stroke="#000000" stroke-width="6.875" stroke-miterlimit="8" fill="none" fill-rule="evenodd"/><text font-family="DengXian,DengXian_MSFontService,sans-serif" font-weight="400" font-size="64" transform="matrix(1 0 0 1 1938.12 832)">Connect </text><text font-family="DengXian,DengXian_MSFontService,sans-serif" font-weight="400" font-size="64" transform="matrix(1 0 0 1 1944.14 909)">Handler</text><path d="M1861 1069.5C1861 1046.58 1879.58 1028 1902.5 1028L2204.5 1028C2227.42 1028 2246 1046.58 2246 1069.5L2246 1235.5C2246 1258.42 2227.42 1277 2204.5 1277L1902.5 1277C1879.58 1277 1861 1258.42 1861 1235.5Z" stroke="#000000" stroke-width="10.3125" stroke-miterlimit="8" fill="#FFFFFF" fill-rule="evenodd"/><text font-family="DengXian,DengXian_MSFontService,sans-serif" font-weight="700" font-size="64" transform="matrix(1 0 0 1 1935.84 1097)">Request </text><text font-family="DengXian,DengXian_MSFontService,sans-serif" font-weight="700" font-size="64" transform="matrix(1 0 0 1 1928.66 1174)">Lifecycle </text><text font-family="DengXian,DengXian_MSFontService,sans-serif" font-weight="700" font-size="64" transform="matrix(1 0 0 1 1923.51 1251)">Manager</text><path d="M2404.5 2104.67C2404.5 2088.56 2417.56 2075.5 2433.67 2075.5L2760.33 2075.5C2776.44 2075.5 2789.5 2088.56 2789.5 2104.67L2789.5 2221.33C2789.5 2237.44 2776.44 2250.5 2760.33 2250.5L2433.67 2250.5C2417.56 2250.5 2404.5 2237.44 2404.5 2221.33Z" stroke="#000000" stroke-width="6.875" stroke-miterlimit="8" fill="none" fill-rule="evenodd"/><text font-family="DengXian,DengXian_MSFontService,sans-serif" font-weight="400" font-size="64" transform="matrix(1 0 0 1 2478.14 2146)">Executor </text><text font-family="DengXian,DengXian_MSFontService,sans-serif" font-weight="400" font-size="64" transform="matrix(1 0 0 1 2473.26 2223)">Manager</text><path d="M1516.5 1449.67C1516.5 1433.56 1529.56 1420.5 1545.67 1420.5L1872.33 1420.5C1888.44 1420.5 1901.5 1433.56 1901.5 1449.67L1901.5 1566.33C1901.5 1582.44 1888.44 1595.5 1872.33 1595.5L1545.67 1595.5C1529.56 1595.5 1516.5 1582.44 1516.5 1566.33Z" stroke="#E97132" stroke-width="6.875" stroke-miterlimit="8" fill="none" fill-rule="evenodd"/><text font-family="DengXian,DengXian_MSFontService,sans-serif" font-weight="400" font-size="64" transform="matrix(1 0 0 1 1635.07 1490)">Initial </text><text font-family="DengXian,DengXian_MSFontService,sans-serif" font-weight="400" font-size="64" transform="matrix(1 0 0 1 1564.33 1567)">Work Item</text><path d="M2898.5 2217.17C2898.5 2204.1 2909.1 2193.5 2922.17 2193.5L3203.83 2193.5C3216.9 2193.5 3227.5 2204.1 3227.5 2217.17L3227.5 2311.83C3227.5 2324.9 3216.9 2335.5 3203.83 2335.5L2922.17 2335.5C2909.1 2335.5 2898.5 2324.9 2898.5 2311.83Z" stroke="#000000" stroke-width="6.875" stroke-miterlimit="8" fill="none" fill-rule="evenodd"/><text font-family="DengXian,DengXian_MSFontService,sans-serif" font-weight="400" font-size="64" transform="matrix(1 0 0 1 2943.84 2247)">Executor</text><text font-family="DengXian,DengXian_MSFontService,sans-serif" font-weight="400" font-size="64" transform="matrix(1 0 0 1 2983.64 2324)">Client</text><path d="M2169 1707.83C2169 1679.21 2192.21 1656 2220.83 1656L2523.17 1656C2551.79 1656 2575 1679.21 2575 1707.83L2575 1915.17C2575 1943.79 2551.79 1967 2523.17 1967L2220.83 1967C2192.21 1967 2169 1943.79 2169 1915.17Z" stroke="#000000" stroke-width="10.3125" stroke-miterlimit="8" fill="none" fill-rule="evenodd"/><text font-family="DengXian,DengXian_MSFontService,sans-serif" font-weight="700" font-size="64" transform="matrix(1 0 0 1 2282.63 1756)">Token </text><text font-family="DengXian,DengXian_MSFontService,sans-serif" font-weight="700" font-size="64" transform="matrix(1 0 0 1 2267.16 1833)">Budget </text><text font-family="DengXian,DengXian_MSFontService,sans-serif" font-weight="700" font-size="64" transform="matrix(1 0 0 1 2228.78 1910)">Scheduler</text><path d="M3437.5 2207.17C3437.5 2190.78 3450.78 2177.5 3467.17 2177.5L3937.83 2177.5C3954.22 2177.5 3967.5 2190.78 3967.5 2207.17L3967.5 2325.83C3967.5 2342.22 3954.22 2355.5 3937.83 2355.5L3467.17 2355.5C3450.78 2355.5 3437.5 2342.22 3437.5 2325.83Z" stroke="#000000" stroke-width="6.875" stroke-miterlimit="8" fill="none" fill-rule="evenodd"/><text font-family="DengXian,DengXian_MSFontService,sans-serif" font-weight="400" font-size="73" transform="matrix(1 0 0 1 3479.09 2246)">Python Mock </text><text font-family="DengXian,DengXian_MSFontService,sans-serif" font-weight="400" font-size="73" transform="matrix(1 0 0 1 3479.09 2334)">Executor</text><path d="M370.5 1448C370.5 1374.82 429.824 1315.5 503.003 1315.5L1033 1315.5C1106.18 1315.5 1165.5 1374.82 1165.5 1448L1165.5 2261C1165.5 2334.18 1106.18 2393.5 1033 2393.5L503.003 2393.5C429.824 2393.5 370.5 2334.18 370.5 2261Z" stroke="#042433" stroke-width="3.4375" stroke-miterlimit="8" fill="none" fill-rule="evenodd"/><text font-family="DengXian,DengXian_MSFontService,sans-serif" font-weight="700" font-size="83" transform="matrix(1 0 0 1 456.801 1433)">Admin</text><text font-family="DengXian,DengXian_MSFontService,sans-serif" font-weight="700" font-size="83" transform="matrix(1 0 0 1 439.613 1532)">Service</text><path d="M412.5 1646.5C412.5 1629.93 425.932 1616.5 442.501 1616.5L862.499 1616.5C879.068 1616.5 892.5 1629.93 892.5 1646.5L892.5 1766.5C892.5 1783.07 879.068 1796.5 862.499 1796.5L442.501 1796.5C425.932 1796.5 412.5 1783.07 412.5 1766.5Z" stroke="#042433" stroke-width="6.875" stroke-miterlimit="8" fill="#7F7F7F" fill-rule="evenodd"/><text fill="#FFFFFF" font-family="DengXian,DengXian_MSFontService,sans-serif" font-weight="400" font-size="64" transform="matrix(1 0 0 1 461.6 1689)">Runtime Stats</text><text fill="#FFFFFF" font-family="DengXian,DengXian_MSFontService,sans-serif" font-weight="400" font-size="64" transform="matrix(1 0 0 1 523.75 1766)">Snapshot</text><path d="M780.5 1957.17C780.5 1944.1 791.096 1933.5 804.167 1933.5L1078.83 1933.5C1091.9 1933.5 1102.5 1944.1 1102.5 1957.17L1102.5 2051.83C1102.5 2064.9 1091.9 2075.5 1078.83 2075.5L804.167 2075.5C791.096 2075.5 780.5 2064.9 780.5 2051.83Z" stroke="#042433" stroke-width="6.875" stroke-miterlimit="8" fill="#7F7F7F" fill-rule="evenodd"/><text fill="#FFFFFF" font-family="DengXian,DengXian_MSFontService,sans-serif" font-weight="400" font-size="64" transform="matrix(1 0 0 1 840.585 2025)">Metrics</text><path d="M2058.16 940 2058.16 1001.99 2047.84 1001.99 2047.84 940ZM2068.47 996.829 2053 1027.77 2037.53 996.829Z"/><path d="M2058.71 1277.38 2058.43 1281.1 2057.54 1285.13 2056.11 1289.07 2054.18 1292.89 2051.8 1296.59 2048.99 1300.19 2045.78 1303.68 2042.19 1307.08 2038.24 1310.38 2033.9 1313.63 2024.38 1319.74 2013.59 1325.51 2001.71 1330.87 1988.84 1335.77 1975.11 1340.19 1960.63 1344.06 1945.52 1347.35 1929.91 1350 1913.92 1351.95 1897.67 1353.17 1881.41 1353.58 1865.28 1353.99 1865.54 1353.98 1849.53 1355.17 1849.77 1355.15 1834.02 1357.07 1834.26 1357.04 1818.89 1359.64 1819.12 1359.6 1804.25 1362.83 1804.49 1362.78 1790.25 1366.59 1790.49 1366.51 1777.01 1370.85 1777.27 1370.76 1764.68 1375.56 1764.96 1375.44 1753.37 1380.67 1753.68 1380.51 1743.23 1386.1 1743.58 1385.89 1734.39 1391.8 1734.7 1391.59 1730.61 1394.64 1731.55 1393.74 1725.92 1400.75 1717.88 1394.3 1723.91 1386.77 1728.67 1383.22 1738.19 1377.1 1748.97 1371.34 1760.86 1365.98 1773.73 1361.07 1787.46 1356.66 1801.94 1352.78 1817.04 1349.5 1832.65 1346.85 1848.64 1344.89 1864.9 1343.68 1881.15 1343.27 1897.28 1342.86 1897.03 1342.87 1913.03 1341.68 1912.79 1341.7 1928.54 1339.77 1928.31 1339.81 1943.68 1337.2 1943.45 1337.25 1958.32 1334.01 1958.08 1334.07 1972.32 1330.26 1972.07 1330.33 1985.55 1326 1985.29 1326.09 1997.89 1321.29 1997.61 1321.4 2009.2 1316.18 2008.89 1316.33 2019.34 1310.75 2018.98 1310.95 2028.17 1305.05 2027.87 1305.26 2031.95 1302.21 2031.73 1302.38 2035.45 1299.27 2035.22 1299.48 2038.56 1296.32 2038.3 1296.57 2041.25 1293.37 2040.99 1293.68 2043.52 1290.43 2043.25 1290.81 2045.36 1287.53 2045.09 1288 2046.76 1284.69 2046.52 1285.25 2047.73 1281.92 2047.54 1282.57 2048.28 1279.23 2048.18 1279.96 2048.43 1276.62ZM1737.87 1400.8 1709 1419.85 1711.08 1385.32Z"/><path d="M2791.85 2160.99 2883.49 2247.03 2878.78 2252.04 2787.15 2166.01ZM2887.2 2236.37 2897.84 2265.22 2868.38 2256.42Z"/><path d="M3227.52 2261.06 3414.7 2262.26 3414.66 2269.14 3227.48 2267.94ZM3410.18 2251.92 3437.59 2265.85 3410.01 2279.42Z"/><path d="M6.11666e-06-3.4375 179.901-3.43718 179.901 3.43782-6.11666e-06 3.4375ZM175.318-13.7497 202.818 0.000360892 175.318 13.7503Z" transform="matrix(-1 0 0 1 1305.32 2004.5)"/><path d="M2058.16 650 2058.16 732.808 2047.84 732.808 2047.84 650ZM2068.47 727.651 2053 758.589 2037.53 727.651Z"/><path d="M780.199 2007.55 774.039 2007.24 767.735 2006.3 761.478 2004.76 755.282 2002.66 749.16 2000.01 743.123 1996.84 737.181 1993.16 731.343 1989.01 725.619 1984.41 720.017 1979.36 714.547 1973.91 709.22 1968.05 704.044 1961.82 699.011 1955.2 689.532 1941.04 680.809 1925.64 672.949 1909.19 666.044 1891.82 660.183 1873.68 655.46 1854.93 651.964 1835.7 650.43 1819.7 657.274 1819.05 658.794 1834.9 658.754 1834.61 662.204 1853.59 662.155 1853.37 666.822 1871.89 666.76 1871.68 672.551 1889.59 672.474 1889.38 679.295 1906.54 679.203 1906.33 686.961 1922.57 686.85 1922.36 695.45 1937.54 695.316 1937.32 704.666 1951.29 704.546 1951.12 709.472 1957.6 709.381 1957.48 714.46 1963.6 714.358 1963.48 719.577 1969.22 719.463 1969.1 724.811 1974.44 724.682 1974.31 730.148 1979.23 730.003 1979.11 735.573 1983.59 735.41 1983.47 741.074 1987.5 740.89 1987.37 746.636 1990.92 746.428 1990.81 752.244 1993.86 752.011 1993.75 757.886 1996.3 757.626 1996.19 763.547 1998.21 763.26 1998.12 769.217 1999.58 768.905 1999.52 774.885 2000.41 774.551 2000.38 780.543 2000.68ZM640.396 1824.76 652.5 1796.5 667.848 1823.14Z"/><path d="M475.5 973.167C475.5 960.096 486.096 949.5 499.167 949.5L1064.83 949.5C1077.9 949.5 1088.5 960.096 1088.5 973.167L1088.5 1067.83C1088.5 1080.9 1077.9 1091.5 1064.83 1091.5L499.167 1091.5C486.096 1091.5 475.5 1080.9 475.5 1067.83Z" stroke="#042433" stroke-width="6.875" stroke-miterlimit="8" fill="#FFFFFF" fill-rule="evenodd"/><text font-family="DengXian,DengXian_MSFontService,sans-serif" font-weight="400" font-size="83" transform="matrix(1 0 0 1 540.834 1048)">Metrics Client</text><path d="M3.43022-0.223637 16.5103 200.404 9.64991 200.851-3.43022 0.223637ZM26.5028 195.159 14.571 223.495-0.938938 196.948Z" transform="matrix(-1 0 0 1 782.071 1091.5)"/><path d="M785.57 1089.95 945.769 1407.82 939.63 1410.91 779.43 1093.05ZM952.916 1399.08 953.014 1429.83 928.358 1411.46Z"/><rect x="761.5" y="1429.5" width="383" height="134" stroke="#F2AA84" stroke-width="3.4375" stroke-linecap="square" stroke-linejoin="round" stroke-miterlimit="10" stroke-dasharray="10.3125 3.4375" fill="none"/><text font-family="DengXian,DengXian_MSFontService,sans-serif" font-weight="400" font-size="83" transform="matrix(1 0 0 1 793.569 1523)">/metrics</text><path d="M4.12434 22.8033 4.74388 43.419-2.12801 43.6255-2.74756 23.0098ZM4.9504 50.2909 5.56995 70.9065-1.30195 71.1131-1.9215 50.4974ZM5.77646 77.7784 6.39601 98.3941-0.475892 98.6007-1.09544 77.985ZM6.60252 105.266 7.22207 125.882 0.35017 126.088-0.269376 105.473ZM7.42858 132.754 8.04813 153.369 1.17623 153.576 0.556685 132.96ZM8.25464 160.241 8.87419 180.857 2.00229 181.063 1.38275 160.448ZM9.08071 187.729 9.70025 208.345 2.82835 208.551 2.20881 187.935ZM9.90676 215.216 10.5263 235.832 3.65441 236.039 3.03487 215.423ZM10.7328 242.704 11.3524 263.32 4.48047 263.526 3.86093 242.91ZM11.5589 270.192 12.1784 290.807 5.30654 291.014 4.68699 270.398ZM12.3849 297.679 13.0045 318.295 6.1326 318.501 5.51305 297.886ZM13.211 325.167 13.8306 345.782 6.95866 345.989 6.33911 325.373ZM14.0371 352.654 14.5641 370.19 7.69217 370.397 7.16517 352.861ZM-12.9177 27.9006 0 0 14.5699 27.0746Z" transform="matrix(-1 0 0 1 952.628 1563.5)"/><path d="M2803.5 1456.67C2803.5 1434.48 2821.48 1416.5 2843.67 1416.5L3092.33 1416.5C3114.52 1416.5 3132.5 1434.48 3132.5 1456.67L3132.5 1617.33C3132.5 1639.52 3114.52 1657.5 3092.33 1657.5L2843.67 1657.5C2821.48 1657.5 2803.5 1639.52 2803.5 1617.33Z" stroke="#0B76A0" stroke-width="6.875" stroke-miterlimit="8" fill="none" fill-rule="evenodd"/><text font-family="DengXian,DengXian_MSFontService,sans-serif" font-weight="400" font-size="64" transform="matrix(1 0 0 1 2848.87 1481)">Executor </text><text font-family="DengXian,DengXian_MSFontService,sans-serif" font-weight="400" font-size="64" transform="matrix(1 0 0 1 2883.82 1558)">Result </text><text font-family="DengXian,DengXian_MSFontService,sans-serif" font-weight="700" font-size="64" transform="matrix(1 0 0 1 2887.26 1635)">Event</text><path d="M2594.06 2075.06 2594.33 2065.19 2595.14 2055.24 2595.29 2054.12 2602.11 2055.04 2601.97 2056.06 2601.99 2055.89 2601.19 2065.65 2601.2 2065.47 2600.94 2075.25ZM2596.21 2047.31 2596.47 2045.34 2598.3 2035.5 2600.37 2026.77 2607.06 2028.35 2605.01 2037 2605.04 2036.83 2603.25 2046.51 2603.27 2046.33 2603.02 2048.22ZM2602.26 2019.99 2603.38 2016.09 2606.6 2006.56 2609.07 2000.21 2615.48 2002.7 2613.04 2008.97 2613.09 2008.83 2609.92 2018.21 2609.97 2018.06 2608.87 2021.89ZM2611.77 1993.72 2614.32 1987.93 2618.79 1978.84 2621.04 1974.91 2627.01 1978.33 2624.81 1982.17 2624.91 1981.97 2620.52 1990.9 2620.58 1990.77 2618.06 1996.49ZM2624.46 1968.94 2628.8 1961.37 2635.71 1951.34 2641.37 1955.23 2634.55 1965.15 2634.7 1964.91 2630.43 1972.36ZM2639.6 1945.67 2640.21 1944.79 2652.76 1929.43 2658.08 1933.77 2645.62 1949.03 2645.79 1948.81 2645.27 1949.57ZM2657.72 1924.26 2666.59 1915.08 2672.55 1909.63 2677.18 1914.71 2671.3 1920.08 2671.46 1919.93 2662.67 1929.04ZM2677.89 1905.07 2681.34 1902.19 2689.03 1896.32 2694.59 1892.47 2698.51 1898.12 2693.01 1901.93 2693.14 1901.84 2685.57 1907.61 2685.69 1907.51 2682.3 1910.35ZM2700.49 1888.63 2704.98 1885.82 2713.21 1881.23 2718.81 1878.47 2721.86 1884.63 2716.33 1887.36 2716.48 1887.28 2708.41 1891.79 2708.55 1891.7 2704.13 1894.46ZM2725.23 1875.54 2730.08 1873.46 2738.69 1870.32 2744.99 1868.42 2746.97 1875.01 2740.77 1876.87 2740.96 1876.81 2732.52 1879.88 2732.7 1879.81 2727.94 1881.85ZM2751.84 1866.65 2756.2 1865.63 2765.05 1864.12 2772.62 1863.34 2773.33 1870.18 2765.87 1870.95 2766.09 1870.92 2757.46 1872.39 2757.67 1872.34 2753.42 1873.34ZM2779.72 1863 2782.75 1862.89 2791.44 1862.59 2791.2 1862.61 2799.87 1861.71 2799.65 1861.74 2799.83 1861.71 2800.99 1868.49 2800.69 1868.54 2791.79 1869.46 2782.99 1869.76 2779.96 1869.87ZM2806.61 1860.56 2808.29 1860.27 2808.07 1860.32 2816.66 1858.29 2816.46 1858.35 2824.98 1855.79 2824.79 1855.85 2825.93 1855.44 2828.28 1861.89 2827.05 1862.34 2818.34 1864.96 2809.55 1867.03 2807.76 1867.34ZM2832.38 1853.08 2833.22 1852.78 2833.04 1852.85 2841.37 1849.27 2841.21 1849.35 2849.42 1845.3 2849.26 1845.38 2850.59 1844.64 2853.94 1850.64 2852.54 1851.43 2844.17 1855.56 2835.66 1859.2 2834.74 1859.54ZM2856.59 1841.29 2857.34 1840.87 2857.19 1840.96 2865.11 1836.01 2864.98 1836.1 2872.73 1830.73 2872.6 1830.82 2873.4 1830.22 2877.57 1835.69 2876.71 1836.34 2868.83 1841.8 2860.76 1846.83 2859.94 1847.29ZM2878.86 1826.05 2880.17 1825.05 2880.05 1825.15 2887.41 1818.99 2887.3 1819.09 2894.23 1812.77 2898.87 1817.85 2891.88 1824.22 2884.4 1830.47 2883.03 1831.52ZM2898.86 1807.99 2907.84 1798.68 2907.65 1798.9 2912.52 1792.93 2917.85 1797.28 2912.89 1803.35 2903.81 1812.76ZM2916.87 1787.61 2920.12 1783.63 2919.95 1783.85 2928.73 1771.1 2934.39 1774.99 2925.53 1787.87 2922.19 1791.96ZM2932.3 1765.56 2940.94 1750.49 2940.83 1750.68 2942.27 1747.76 2948.44 1750.8 2946.95 1753.82 2938.27 1768.98ZM2945.24 1741.72 2949.17 1732.8 2949.11 1732.93 2952.7 1723.68 2952.65 1723.83 2952.95 1722.93 2959.47 1725.13 2959.14 1726.1 2955.49 1735.49 2951.53 1744.49ZM2955.16 1716.42 2955.82 1714.44 2955.77 1714.6 2958.5 1705.1 2958.46 1705.25 2960.46 1696.83 2967.15 1698.41 2965.13 1706.92 2962.36 1716.57 2961.67 1718.62ZM2961.74 1690.25 2962.5 1686.15 2962.45 1686.46 2963.06 1680.03 2969.9 1680.67 2969.28 1687.26 2968.5 1691.5ZM2952.42 1683.86 2968.24 1657.5 2979.83 1685.98Z" fill="#7F7F7F"/><path d="M0.145981-3.4344 6.47494-3.16538 12.9376-2.34664 19.3795-0.99563 21.3226-0.428803 19.3973 6.17111 17.5815 5.64142 17.8386 5.70577 11.6623 4.41047 11.9358 4.4564 5.75338 3.67316 6.03944 3.69731-0.145981 3.4344ZM28.1068 1.73774 32.1779 3.25546 38.5257 6.1315 44.8352 9.49234 47.2435 10.9654 43.6561 16.8303 41.3351 15.4106 41.5127 15.5121 35.3908 12.2511 35.5882 12.3483 29.4481 9.56635 29.6659 9.65619 25.7053 8.17966ZM53.1938 14.7692 57.3312 17.625 63.5147 22.3764 69.6532 27.5718 69.8334 27.7384 65.1672 32.7874 65.0421 32.6717 65.1544 32.771 59.1351 27.6765 59.2614 27.7784 53.2119 23.1299 53.3537 23.2332 49.2885 20.4273ZM74.8824 32.4046 75.7453 33.202 81.7896 39.2584 87.7844 45.7323 89.3903 47.592 84.1868 52.0853 82.6199 50.2707 82.6994 50.3596 76.7888 43.9767 76.878 44.0694 70.9281 38.1077 71.0281 38.2039 70.2162 37.4536ZM93.9474 52.8867 99.6182 59.8992 105.453 67.5757 106.714 69.3345 101.126 73.3396 99.8935 71.6201 99.9509 71.6977 94.1762 64.1007 94.24 64.182 88.6016 57.2097ZM110.719 74.9225 111.231 75.6369 116.949 84.0745 122.207 92.26 116.422 95.9754 111.187 87.8255 111.234 87.8963 105.565 79.5311 105.617 79.6052 105.131 78.9275ZM125.804 98.2561 133.721 111.564 136.231 116.212 130.183 119.479 127.706 114.894 127.776 115.018 119.895 101.771ZM139.499 122.261 144.558 131.626 149.028 140.693 142.861 143.733 138.42 134.723 138.479 134.837 133.45 125.528ZM152.068 146.859 155.095 153 160.813 165.664 154.548 168.493 148.853 155.882 148.903 155.988 145.901 149.899ZM163.643 171.93 165.31 175.622 171.699 191.03 165.348 193.664 158.98 178.304 159.022 178.402 157.377 174.759ZM174.332 197.381 175.18 199.426 181.775 216.722 175.351 219.171 168.774 201.921 168.81 202.013 167.981 200.014ZM184.224 223.146 184.682 224.348 191.114 242.683 184.627 244.959 178.21 226.667 178.242 226.754 177.8 225.595ZM193.39 249.171 193.794 250.322 199.777 268.873 193.234 270.983 187.264 252.474 187.292 252.557 186.902 251.446ZM201.888 275.416 202.49 277.284 207.814 295.257 201.222 297.21 195.91 279.276 195.935 279.355 195.345 277.526ZM209.766 301.849 210.749 305.167 215.264 321.809 208.629 323.609 204.124 307.005 204.146 307.081 203.175 303.801ZM217.064 328.444 218.546 333.907 222.161 348.507 215.488 350.16 211.882 335.596 211.901 335.67 210.429 330.244ZM223.814 355.181 225.858 363.437 228.532 375.334 221.825 376.842 219.158 364.981 219.175 365.053 217.14 356.833ZM230.04 382.041 232.66 393.693 234.4 402.273 227.662 403.64 225.929 395.095 225.944 395.166 223.333 383.549ZM235.766 409.011 238.929 424.609 239.781 429.313 233.017 430.54 232.17 425.87 232.184 425.94 229.028 410.377ZM241.008 436.078 244.64 456.118 244.692 456.443 237.903 457.53 237.857 457.24 237.869 457.309 234.243 437.304ZM245.779 463.232 249.04 483.597 242.251 484.684 238.99 464.319ZM250.091 490.462 252.934 510.89 246.125 511.838 243.281 491.41ZM253.882 517.7 254.294 520.656 256.376 538.244 249.549 539.052 247.471 521.5 247.48 521.569 247.073 518.648ZM257.184 545.071 258.189 553.554 259.368 565.65 252.526 566.318 251.35 554.256 251.357 554.327 250.357 545.879ZM260.036 572.493 261.429 586.782 261.913 593.103 255.058 593.628 254.577 587.343 254.583 587.414 253.193 573.16ZM262.438 599.958 263.992 620.276 264.01 620.596 257.145 620.975 257.13 620.692 257.135 620.765 255.583 600.483ZM264.389 627.461 265.526 648.054 258.662 648.433 257.524 627.84ZM265.887 654.994 266.578 675.608 259.707 675.838 259.016 655.225ZM266.809 682.479 266.987 687.798 267.111 698.739 260.236 698.817 260.113 687.914 260.115 687.99 259.938 682.709ZM277.371 694.039 263.933 721.693 249.873 694.35Z" fill="#7F7F7F" transform="matrix(-1.83697e-16 -1 -1 1.83697e-16 2968.19 1416.43)"/><path d="M1713.44 1595.01 1713.41 1608.55 1713.34 1621.68 1713.23 1633.95 1713.16 1639.65 1713.08 1644.97 1713 1649.87 1712.91 1654.29 1712.81 1658.19 1712.71 1661.51 1712.61 1664.22 1712.5 1666.3 1712.35 1668.02 1712.14 1668.85 1712.03 1669.27 1712.17 1668.43 1712.07 1669.65 1712.08 1669.47 1711.97 1671.43 1711.98 1671.36 1711.88 1674 1711.88 1673.96 1711.78 1677.25 1711.78 1677.22 1711.68 1681.09 1711.68 1681.07 1711.6 1685.47 1711.6 1685.45 1711.51 1690.34 1711.44 1695.63 1711.37 1701.3 1711.37 1701.27 1711.27 1714.4 1700.96 1714.32 1701.05 1701.18 1701.12 1695.48 1701.2 1690.16 1701.29 1685.27 1701.37 1680.85 1701.47 1676.95 1701.57 1673.63 1701.67 1670.92 1701.78 1668.84 1701.94 1667.11 1702.15 1666.29 1702.25 1665.87 1702.11 1666.7 1702.22 1665.49 1702.21 1665.67 1702.31 1663.71 1702.31 1663.78 1702.41 1661.13 1702.41 1661.18 1702.51 1657.89 1702.5 1657.92 1702.6 1654.05 1702.6 1654.07 1702.69 1649.67 1702.69 1649.68 1702.77 1644.82 1702.85 1639.52 1702.92 1633.86 1703.03 1621.6 1703.03 1621.62 1703.1 1608.51 1703.1 1608.53 1703.13 1594.99ZM1721.61 1709.27 1706 1740.14 1690.67 1709.13Z"/><path d="M2.48397-4.5185 175.353 90.5138 170.385 99.5508-2.48397 4.5185ZM175.803 78.9928 195.462 107.452 160.899 106.104Z" transform="matrix(-1 0 0 1 2372.46 1967)"/><path d="M2898.5 1994.17C2898.5 1981.1 2909.1 1970.5 2922.17 1970.5L3203.83 1970.5C3216.9 1970.5 3227.5 1981.1 3227.5 1994.17L3227.5 2088.83C3227.5 2101.9 3216.9 2112.5 3203.83 2112.5L2922.17 2112.5C2909.1 2112.5 2898.5 2101.9 2898.5 2088.83Z" stroke="#000000" stroke-width="6.875" stroke-miterlimit="8" fill="none" fill-rule="evenodd"/><text font-family="DengXian,DengXian_MSFontService,sans-serif" font-weight="400" font-size="64" transform="matrix(1 0 0 1 2943.84 2024)">Executor</text><text font-family="DengXian,DengXian_MSFontService,sans-serif" font-weight="400" font-size="64" transform="matrix(1 0 0 1 2983.64 2101)">Client</text><path d="M2.56696-2.28629 95.666 102.242 90.5321 106.814-2.56696 2.28629ZM100.318 91.9601 108.341 121.641 79.7828 110.25Z" transform="matrix(1 0 0 -1 2789.5 2163.14)"/><path d="M3437.5 1983.17C3437.5 1966.78 3450.78 1953.5 3467.17 1953.5L3937.83 1953.5C3954.22 1953.5 3967.5 1966.78 3967.5 1983.17L3967.5 2101.83C3967.5 2118.22 3954.22 2131.5 3937.83 2131.5L3467.17 2131.5C3450.78 2131.5 3437.5 2118.22 3437.5 2101.83Z" stroke="#000000" stroke-width="6.875" stroke-miterlimit="8" fill="none" fill-rule="evenodd"/><text font-family="DengXian,DengXian_MSFontService,sans-serif" font-weight="400" font-size="73" transform="matrix(1 0 0 1 3479.09 2022)">Python Mock </text><text font-family="DengXian,DengXian_MSFontService,sans-serif" font-weight="400" font-size="73" transform="matrix(1 0 0 1 3479.09 2110)">Executor</text><path d="M3227.52 2038.06 3414.7 2039.26 3414.66 2046.14 3227.48 2044.94ZM3410.18 2028.92 3437.59 2042.85 3410.01 2056.42Z"/><path d="M2053.5 1456.67C2053.5 1440.56 2066.56 1427.5 2082.67 1427.5L2615.33 1427.5C2631.44 1427.5 2644.5 1440.56 2644.5 1456.67L2644.5 1573.33C2644.5 1589.44 2631.44 1602.5 2615.33 1602.5L2082.67 1602.5C2066.56 1602.5 2053.5 1589.44 2053.5 1573.33Z" stroke="#E97132" stroke-width="6.875" stroke-miterlimit="8" fill="none" fill-rule="evenodd"/><text font-family="DengXian,DengXian_MSFontService,sans-serif" font-weight="400" font-size="64" transform="matrix(1 0 0 1 2131.16 1498)">Next Work Item</text><text font-family="DengXian,DengXian_MSFontService,sans-serif" font-weight="400" font-size="64" transform="matrix(1 0 0 1 2119.13 1575)">Prefill</text><text font-family="DengXian,DengXian_MSFontService,sans-serif" font-weight="400" font-size="64" transform="matrix(1 0 0 1 2289.29 1575)">or Decode</text><path d="M0.208385-3.43118 7.43921-2.99203 14.7951-1.67955 21.2057 0.19513 19.276 6.79376 13.0437 4.9712 13.4047 5.05594 6.42795 3.81111 6.82337 3.85824-0.208385 3.43118ZM27.9255 2.82886 29.0189 3.27213 35.7814 6.78918 42.2424 10.9227 46.2717 14.019 42.0826 19.4704 38.1707 16.4642 38.4128 16.6342 32.2061 12.6634 32.4725 12.8175 25.9908 9.44648 26.2855 9.58246 25.3426 9.20022ZM51.7073 18.6767 54.0554 20.8174 59.3031 26.4715 64.0405 32.5273 65.6338 34.9736 59.8729 38.7256 58.3609 36.4041 58.5339 36.6461 53.9775 30.8218 54.1654 31.0422 49.1139 25.5995 49.3175 25.8013 47.0754 23.7572ZM69.364 41.1076 71.7638 45.6403 74.6347 52.5965 76.7647 59.7513 77.044 61.289 70.2797 62.5177 70.0341 61.1656 70.1217 61.5321 68.0956 54.7264 68.2126 55.057 65.4714 48.4149 65.611 48.712 63.288 44.3246ZM78.1786 68.4729 78.5341 74.223 78.965 81.1922 78.9162 80.79 80.1722 87.7047 80.0846 87.3382 80.3282 88.1563 73.739 90.1179 73.4416 89.119 72.1156 81.819 71.6722 74.6473 71.3167 68.8971ZM82.2331 94.3935 84.7349 100.455 84.5953 100.158 87.9966 106.582 87.8391 106.315 91.5492 112.011 85.7883 115.763 81.9934 109.937 78.4425 103.23 75.878 97.0163ZM95.5741 117.212 96.2288 118.049 96.0409 117.828 101.092 123.271 100.889 123.069 106.38 128.076 106.159 127.89 109.89 130.757 105.701 136.209 101.855 133.254 96.1509 128.053 90.9033 122.399 90.1592 121.448ZM115.305 134.483 118 136.207 117.734 136.053 124.215 139.424 123.472 139.141 128.701 140.464 127.015 147.129 121.398 145.708 114.425 142.081 111.6 140.274ZM126.433 129.373 150.206 148.87 120.344 156.19Z" fill="#7F7F7F" transform="matrix(1.83697e-16 1 1 -1.83697e-16 2200.5 1277.5)"/><path d="M1381.5 1071.67C1381.5 1048.93 1399.93 1030.5 1422.67 1030.5L1701.33 1030.5C1724.07 1030.5 1742.5 1048.93 1742.5 1071.67L1742.5 1236.33C1742.5 1259.07 1724.07 1277.5 1701.33 1277.5L1422.67 1277.5C1399.93 1277.5 1381.5 1259.07 1381.5 1236.33Z" stroke="#000000" stroke-width="6.875" stroke-miterlimit="8" fill="#FFFFFF" fill-rule="evenodd"/><text font-family="DengXian,DengXian_MSFontService,sans-serif" font-weight="400" font-size="64" transform="matrix(1 0 0 1 1485.56 1098)">Prefix </text><text font-family="DengXian,DengXian_MSFontService,sans-serif" font-weight="400" font-size="64" transform="matrix(1 0 0 1 1476.69 1175)">Cache </text><text font-family="DengXian,DengXian_MSFontService,sans-serif" font-weight="400" font-size="64" transform="matrix(1 0 0 1 1429.98 1252)">Metadata</text><path d="M3362.5 1918.17C3362.5 1864.78 3405.78 1821.5 3459.17 1821.5L3933.83 1821.5C3987.22 1821.5 4030.5 1864.78 4030.5 1918.17L4030.5 2304.83C4030.5 2358.22 3987.22 2401.5 3933.83 2401.5L3459.17 2401.5C3405.78 2401.5 3362.5 2358.22 3362.5 2304.83Z" stroke="#042433" stroke-width="3.4375" stroke-miterlimit="8" fill="none" fill-rule="evenodd"/><text font-family="DengXian,DengXian_MSFontService,sans-serif" font-weight="700" font-size="55" transform="matrix(1 0 0 1 3394.74 1904)">K8s / Execution Backend</text><path d="M22.9486-3.21785 43.5726-3.02031 43.5068 3.85438 22.8827 3.65684ZM50.4473-2.95446 71.0714-2.75691 71.0055 4.11777 50.3815 3.92023ZM77.946-2.69107 95.5019-2.52291 95.4361 4.35177 77.8802 4.18362ZM27.367 14.0128 0 0 27.6304-13.486ZM91.0176-12.8788 118.385 1.13392 90.7542 14.6199Z" fill="#7F7F7F" transform="matrix(-1 0 0 1 1860.88 1152.5)"/><path d="M1943.75 1870.5C1937.81 1870.5 1933 1851.25 1933 1827.5 1933 1803.75 1937.81 1784.5 1943.75 1784.5 1949.69 1784.5 1954.5 1803.75 1954.5 1827.5 1954.5 1851.25 1949.69 1870.5 1943.75 1870.5L1478.25 1870.5C1472.31 1870.5 1467.5 1851.25 1467.5 1827.5 1467.5 1803.75 1472.31 1784.5 1478.25 1784.5L1943.75 1784.5" stroke="#000000" stroke-width="6.875" stroke-miterlimit="8" fill="none" fill-rule="evenodd"/><text font-family="DengXian,DengXian_MSFontService,sans-serif" font-weight="400" font-size="48" transform="matrix(1 0 0 1 1509.7 1843)">Prefill Small Queue</text><path d="M1943.75 1992.5C1937.81 1992.5 1933 1973.25 1933 1949.5 1933 1925.75 1937.81 1906.5 1943.75 1906.5 1949.69 1906.5 1954.5 1925.75 1954.5 1949.5 1954.5 1973.25 1949.69 1992.5 1943.75 1992.5L1478.25 1992.5C1472.31 1992.5 1467.5 1973.25 1467.5 1949.5 1467.5 1925.75 1472.31 1906.5 1478.25 1906.5L1943.75 1906.5" stroke="#000000" stroke-width="6.875" stroke-miterlimit="8" fill="none" fill-rule="evenodd"/><text font-family="DengXian,DengXian_MSFontService,sans-serif" font-weight="400" font-size="48" transform="matrix(1 0 0 1 1507.98 1965)">Prefill Large Queue</text><path d="M1942.62 2111.5C1936.62 2111.5 1931.75 2092.02 1931.75 2068 1931.75 2043.98 1936.62 2024.5 1942.62 2024.5 1948.63 2024.5 1953.5 2043.98 1953.5 2068 1953.5 2092.02 1948.63 2111.5 1942.62 2111.5L1478.37 2111.5C1472.37 2111.5 1467.5 2092.02 1467.5 2068 1467.5 2043.98 1472.37 2024.5 1478.37 2024.5L1942.62 2024.5" stroke="#000000" stroke-width="6.875" stroke-miterlimit="8" fill="none" fill-rule="evenodd"/><text font-family="DengXian,DengXian_MSFontService,sans-serif" font-weight="400" font-size="48" transform="matrix(1 0 0 1 1549.08 2083)">Decode Queue</text><path d="M1397.5 1811C1397.5 1772.06 1429.06 1740.5 1468 1740.5L1946 1740.5C1984.94 1740.5 2016.5 1772.06 2016.5 1811L2016.5 2093C2016.5 2131.94 1984.94 2163.5 1946 2163.5L1468 2163.5C1429.06 2163.5 1397.5 2131.94 1397.5 2093Z" stroke="#042433" stroke-width="3.4375" stroke-miterlimit="8" fill="none" fill-rule="evenodd"/><path d="M25.7813-5.15619 156.217-5.15589 156.217 5.15661 25.7812 5.15631ZM30.9375 15.4688 0 0 30.9375-15.4687Z" transform="matrix(-1 0 0 1 2169.22 1812)"/><path d="M0.155955-3.43396 7.43367-3.10344 14.84-2.10656 21.1478-0.708229 19.6598 6.00382 13.4937 4.63689 13.7792 4.68764 6.66727 3.7304 6.96986 3.75758-0.155955 3.43396ZM28.0043 1.30793 29.4969 1.76643 36.7167 4.59319 43.8455 7.98119 47.4636 10.0031 44.1098 16.0046 40.5907 14.038 40.7921 14.1419 33.8751 10.8546 34.0974 10.9508 27.1108 8.21535 27.3547 8.30042 25.9856 7.87988ZM53.5492 13.6288 57.7793 16.3477 64.5595 21.2812 70.4507 26.0766 66.1106 31.4085 60.2916 26.6719 60.4392 26.7856 53.8146 21.9653 53.9784 22.0774 49.8318 19.4121ZM75.7166 30.763 77.6856 32.54 84.007 38.823 90.1505 45.514 90.4392 45.8573 85.1777 50.2823 84.9371 49.9963 85.0358 50.1086 78.996 43.5306 79.1047 43.6438 72.8978 37.4745 73.018 37.5883 71.1104 35.8667ZM94.8643 51.1188 96.126 52.619 107.388 67.828 107.505 68.0145 101.679 71.6645 101.633 71.5912 101.783 71.8119 90.6642 56.7958 90.796 56.9627 89.6028 55.5439ZM111.155 73.8403 117.754 84.3729 121.7 91.8445 115.621 95.0551 111.734 87.6958 111.861 87.9156 105.329 77.4906ZM124.911 97.9238 127.097 102.063 133.613 116.884 127.32 119.651 120.853 104.943 120.96 105.165 118.832 101.134ZM136.287 123.477 142.277 140.236 143.102 143.197 136.479 145.043 135.687 142.199 135.762 142.434 129.813 125.791ZM144.947 149.82 147.885 160.366 150.01 170 143.296 171.48 141.192 161.938 141.237 162.121 138.324 151.665ZM151.287 176.886 152.045 181.06 153.543 191.573 154.016 197.669 147.162 198.201 146.697 192.215 146.721 192.434 145.248 182.095 145.269 182.225 144.522 178.114ZM164.248 195.022 152.067 223.252 136.792 196.569Z" fill="#7F7F7F" transform="matrix(-1 1.22465e-16 1.22465e-16 1 2053.57 1515.5)"/><text font-family="DengXian,DengXian_MSFontService,sans-serif" font-weight="700" font-size="83" transform="matrix(1 0 0 1 2502.34 917)">Inference</text><text font-family="DengXian,DengXian_MSFontService,sans-serif" font-weight="700" font-size="83" transform="matrix(1 0 0 1 2875.88 917)">Service</text><path d="M2047.5 2104.67C2047.5 2088.56 2060.56 2075.5 2076.67 2075.5L2278.33 2075.5C2294.44 2075.5 2307.5 2088.56 2307.5 2104.67L2307.5 2221.33C2307.5 2237.44 2294.44 2250.5 2278.33 2250.5L2076.67 2250.5C2060.56 2250.5 2047.5 2237.44 2047.5 2221.33Z" stroke="#000000" stroke-width="6.875" stroke-miterlimit="8" fill="none" fill-rule="evenodd"/><text font-family="DengXian,DengXian_MSFontService,sans-serif" font-weight="400" font-size="64" transform="matrix(1 0 0 1 2092.9 2146)">Mixed </text><text font-family="DengXian,DengXian_MSFontService,sans-serif" font-weight="400" font-size="64" transform="matrix(1 0 0 1 2100.05 2223)">Batch</text><path d="M2307 2157.84 2378.33 2157.84 2378.33 2168.16 2307 2168.16ZM2373.18 2147.53 2404.11 2163 2373.18 2178.47Z"/></g></svg>