<svg width="2834" height="1783" xmlns="http://www.w3.org/2000/svg" xmlns:xlink="http://www.w3.org/1999/xlink" xml:space="preserve" overflow="hidden"><defs><clipPath id="clip0"><rect x="783" y="585" width="2834" height="1783"/></clipPath></defs><g clip-path="url(#clip0)" transform="translate(-783 -585)"><rect x="783" y="585" width="2834" height="1783" fill="#FFFFFF"/><text fill="#FFFFFF" font-family="DengXian,DengXian_MSFontService,sans-serif" font-weight="400" font-size="83" transform="matrix(1 0 0 1 1956.51 1455)">Runtime Stats</text><text fill="#FFFFFF" font-family="DengXian,DengXian_MSFontService,sans-serif" font-weight="400" font-size="83" transform="matrix(1 0 0 1 2035.27 1554)">Snapshot</text><path d="M1703.5 1016.17C1703.5 928.539 1774.54 857.5 1862.17 857.5L2496.83 857.5C2584.46 857.5 2655.5 928.539 2655.5 1016.17L2655.5 2098.83C2655.5 2186.46 2584.46 2257.5 2496.83 2257.5L1862.17 2257.5C1774.54 2257.5 1703.5 2186.46 1703.5 2098.83Z" stroke="#042433" stroke-width="3.4375" stroke-miterlimit="8" fill="none" fill-rule="evenodd"/><text font-family="DengXian,DengXian_MSFontService,sans-serif" font-weight="700" font-size="55" transform="matrix(1 0 0 1 1873.22 954)">same</text><text font-family="DengXian,DengXian_MSFontService,sans-serif" font-weight="700" font-size="55" transform="matrix(1 0 0 1 2018.17 954)">Family</text><text font-family="DengXian,DengXian_MSFontService,sans-serif" font-weight="700" font-size="55" transform="matrix(1 0 0 1 2179.73 954)">, same config</text><text font-family="DengXian,DengXian_MSFontService,sans-serif" font-weight="700" font-size="110" transform="matrix(1 0 0 1 1793.62 742)">Tensor Mobility</text><text font-family="DengXian,DengXian_MSFontService,sans-serif" font-weight="700" font-size="64" transform="matrix(1 0 0 1 1783.99 1122)">Executor</text><text font-family="DengXian,DengXian_MSFontService,sans-serif" font-weight="700" font-size="64" transform="matrix(1 0 0 1 2053.84 1122)">1</text><text font-family="DengXian,DengXian_MSFontService,sans-serif" font-weight="700" font-size="73" transform="matrix(1 0 0 1 1872.22 1207)">Slo</text><text font-family="DengXian,DengXian_MSFontService,sans-serif" font-weight="700" font-size="73" transform="matrix(1 0 0 1 1974.78 1207)">t</text><path d="M1822.5 1283.67C1822.5 1262.59 1839.59 1245.5 1860.67 1245.5L2013.33 1245.5C2034.41 1245.5 2051.5 1262.59 2051.5 1283.67L2051.5 2044.33C2051.5 2065.41 2034.41 2082.5 2013.33 2082.5L1860.67 2082.5C1839.59 2082.5 1822.5 2065.41 1822.5 2044.33Z" stroke="#000000" stroke-width="6.875" stroke-miterlimit="8" fill="none" fill-rule="evenodd"/><rect x="1847.5" y="1268.5" width="78.9998" height="80.0001" stroke="#042433" stroke-width="6.875" stroke-miterlimit="8" fill="none"/><text font-family="DengXian,DengXian_MSFontService,sans-serif" font-weight="400" font-size="64" transform="matrix(1 0 0 1 1869.69 1330)">1</text><rect x="893.5" y="1738.5" width="157" height="158" stroke="#042433" stroke-width="6.875" stroke-miterlimit="8" fill="none"/><text font-family="DengXian,DengXian_MSFontService,sans-serif" font-weight="400" font-size="83" transform="matrix(1 0 0 1 949.659 1845)">1</text><rect x="1050.5" y="1738.5" width="158" height="158" stroke="#042433" stroke-width="6.875" stroke-miterlimit="8" fill="none"/><text font-family="DengXian,DengXian_MSFontService,sans-serif" font-weight="400" font-size="83" transform="matrix(1 0 0 1 1107.33 1844)">2</text><rect x="1207.5" y="1738.5" width="157" height="158" stroke="#042433" stroke-width="6.875" stroke-miterlimit="8" fill="none"/><text font-family="DengXian,DengXian_MSFontService,sans-serif" font-weight="400" font-size="83" transform="matrix(1 0 0 1 1263.87 1845)">3</text><rect x="1364.5" y="1738.5" width="158" height="158" stroke="#042433" stroke-width="6.875" stroke-miterlimit="8" fill="none"/><text font-family="DengXian,DengXian_MSFontService,sans-serif" font-weight="400" font-size="83" transform="matrix(1 0 0 1 1421.54 1844)">4</text><text font-family="DengXian,DengXian_MSFontService,sans-serif" font-weight="700" font-size="73" transform="matrix(1 0 0 1 1009.76 1687)">Block</text><text font-family="DengXian,DengXian_MSFontService,sans-serif" font-weight="700" font-size="73" transform="matrix(1 0 0 1 1209.14 1687)">-</text><text font-family="DengXian,DengXian_MSFontService,sans-serif" font-weight="700" font-size="73" transform="matrix(1 0 0 1 1265.85 1687)">1</text><text font-family="DengXian,DengXian_MSFontService,sans-serif" font-weight="700" font-size="73" transform="matrix(1 0 0 1 1306.53 1687)">03</text><rect x="1847.5" y="1348.5" width="78.9998" height="80.0001" stroke="#042433" stroke-width="6.875" stroke-miterlimit="8" fill="none"/><text font-family="DengXian,DengXian_MSFontService,sans-serif" font-weight="400" font-size="64" transform="matrix(1 0 0 1 1869.45 1409)">2</text><rect x="1847.5" y="1428.5" width="78.9998" height="79.9998" stroke="#042433" stroke-width="6.875" stroke-miterlimit="8" fill="none"/><text font-family="DengXian,DengXian_MSFontService,sans-serif" font-weight="400" font-size="64" transform="matrix(1 0 0 1 1869.6 1490)">3</text><rect x="1846.5" y="1508.5" width="79.9998" height="80.0001" stroke="#042433" stroke-width="6.875" stroke-miterlimit="8" fill="none"/><text font-family="DengXian,DengXian_MSFontService,sans-serif" font-weight="400" font-size="64" transform="matrix(1 0 0 1 1869.36 1569)">4</text><rect x="1846.5" y="1588.5" width="79.9998" height="79.0001" stroke="#042433" stroke-width="6.875" stroke-miterlimit="8" fill="none"/><text font-family="DengXian,DengXian_MSFontService,sans-serif" font-weight="400" font-size="64" transform="matrix(1 0 0 1 1869.36 1649)">5</text><rect x="1846.5" y="1667.5" width="79.9998" height="80.0001" stroke="#042433" stroke-width="6.875" stroke-miterlimit="8" fill="none"/><text font-family="DengXian,DengXian_MSFontService,sans-serif" font-weight="400" font-size="64" transform="matrix(1 0 0 1 1869.12 1729)">6</text><rect x="1846.5" y="1748.5" width="79.9998" height="78.9998" stroke="#042433" stroke-width="6.875" stroke-miterlimit="8" fill="none"/><text font-family="DengXian,DengXian_MSFontService,sans-serif" font-weight="400" font-size="64" transform="matrix(1 0 0 1 1869.27 1809)">7</text><rect x="1846.5" y="1827.5" width="79.9998" height="80.0001" stroke="#042433" stroke-width="6.875" stroke-miterlimit="8" fill="none"/><text font-family="DengXian,DengXian_MSFontService,sans-serif" font-weight="400" font-size="64" transform="matrix(1 0 0 1 1869.03 1889)">8</text><rect x="1846.5" y="1907.5" width="79.9998" height="80.0001" stroke="#042433" stroke-width="6.875" stroke-miterlimit="8" fill="none"/><text font-family="DengXian,DengXian_MSFontService,sans-serif" font-weight="400" font-size="64" transform="matrix(1 0 0 1 1869.03 1968)">9</text><rect x="1847.5" y="1987.5" width="78.9998" height="79.0001" stroke="#042433" stroke-width="6.875" stroke-miterlimit="8" fill="none"/><text font-family="DengXian,DengXian_MSFontService,sans-serif" font-weight="400" font-size="64" transform="matrix(1 0 0 1 1870.57 2048)">a</text><rect x="1947.5" y="1268.5" width="80.0001" height="80.0001" stroke="#042433" stroke-width="6.875" stroke-miterlimit="8" fill="#FF0000"/><rect x="1947.5" y="1348.5" width="80.0001" height="80.0001" stroke="#042433" stroke-width="6.875" stroke-miterlimit="8" fill="#FF0000"/><rect x="1947.5" y="1428.5" width="80.0001" height="79.9998" stroke="#042433" stroke-width="6.875" stroke-miterlimit="8" fill="#FF0000"/><rect x="1947.5" y="1508.5" width="79.0001" height="80.0001" stroke="#042433" stroke-width="6.875" stroke-miterlimit="8" fill="#00B050"/><rect x="1947.5" y="1588.5" width="79.0001" height="79.0001" stroke="#042433" stroke-width="6.875" stroke-miterlimit="8" fill="#FF0000"/><rect x="1947.5" y="1667.5" width="79.0001" height="80.0001" stroke="#042433" stroke-width="6.875" stroke-miterlimit="8" fill="#FF0000"/><rect x="1947.5" y="1748.5" width="79.0001" height="78.9998" stroke="#042433" stroke-width="6.875" stroke-miterlimit="8" fill="#FF0000"/><rect x="1946.5" y="1827.5" width="79.9998" height="80.0001" stroke="#042433" stroke-width="6.875" stroke-miterlimit="8" fill="#FF0000"/><rect x="1946.5" y="1907.5" width="79.9998" height="80.0001" stroke="#042433" stroke-width="6.875" stroke-miterlimit="8" fill="#FF0000"/><rect x="1946.5" y="1987.5" width="79.9998" height="79.0001" stroke="#042433" stroke-width="6.875" stroke-miterlimit="8" fill="#00B050"/><path d="M854.5 1646.17C854.5 1614.32 880.319 1588.5 912.168 1588.5L1516.83 1588.5C1548.68 1588.5 1574.5 1614.32 1574.5 1646.17L1574.5 1876.83C1574.5 1908.68 1548.68 1934.5 1516.83 1934.5L912.168 1934.5C880.319 1934.5 854.5 1908.68 854.5 1876.83Z" stroke="#000000" stroke-width="6.875" stroke-miterlimit="8" fill="none" fill-rule="evenodd"/><text font-family="DengXian,DengXian_MSFontService,sans-serif" font-weight="700" font-size="64" transform="matrix(1 0 0 1 2268.54 1122)">Executor </text><text font-family="DengXian,DengXian_MSFontService,sans-serif" font-weight="700" font-size="64" transform="matrix(1 0 0 1 2538.39 1122)">2</text><text font-family="DengXian,DengXian_MSFontService,sans-serif" font-weight="700" font-size="73" transform="matrix(1 0 0 1 2356.77 1207)">Slot</text><path d="M2306.5 1283.83C2306.5 1262.66 2323.66 1245.5 2344.83 1245.5L2498.17 1245.5C2519.34 1245.5 2536.5 1262.66 2536.5 1283.83L2536.5 2044.17C2536.5 2065.34 2519.34 2082.5 2498.17 2082.5L2344.83 2082.5C2323.66 2082.5 2306.5 2065.34 2306.5 2044.17Z" stroke="#000000" stroke-width="6.875" stroke-miterlimit="8" fill="none" fill-rule="evenodd"/><rect x="2331.5" y="1268.5" width="79.9998" height="80.0001" stroke="#042433" stroke-width="6.875" stroke-miterlimit="8" fill="none"/><text font-family="DengXian,DengXian_MSFontService,sans-serif" font-weight="400" font-size="64" transform="matrix(1 0 0 1 2354.24 1330)">1</text><rect x="2331.5" y="1348.5" width="79.9998" height="80.0001" stroke="#042433" stroke-width="6.875" stroke-miterlimit="8" fill="none"/><text font-family="DengXian,DengXian_MSFontService,sans-serif" font-weight="400" font-size="64" transform="matrix(1 0 0 1 2354 1409)">2</text><rect x="2331.5" y="1428.5" width="79.9998" height="79.9998" stroke="#042433" stroke-width="6.875" stroke-miterlimit="8" fill="none"/><text font-family="DengXian,DengXian_MSFontService,sans-serif" font-weight="400" font-size="64" transform="matrix(1 0 0 1 2354.15 1490)">3</text><rect x="2331.5" y="1508.5" width="79.9998" height="80.0001" stroke="#042433" stroke-width="6.875" stroke-miterlimit="8" fill="none"/><text font-family="DengXian,DengXian_MSFontService,sans-serif" font-weight="400" font-size="64" transform="matrix(1 0 0 1 2353.91 1569)">4</text><rect x="2331.5" y="1588.5" width="79.9998" height="79.0001" stroke="#042433" stroke-width="6.875" stroke-miterlimit="8" fill="none"/><text font-family="DengXian,DengXian_MSFontService,sans-serif" font-weight="400" font-size="64" transform="matrix(1 0 0 1 2353.91 1649)">5</text><rect x="2331.5" y="1667.5" width="78.9998" height="80.0001" stroke="#042433" stroke-width="6.875" stroke-miterlimit="8" fill="none"/><text font-family="DengXian,DengXian_MSFontService,sans-serif" font-weight="400" font-size="64" transform="matrix(1 0 0 1 2353.67 1729)">6</text><rect x="2331.5" y="1748.5" width="79.9998" height="78.9998" stroke="#042433" stroke-width="6.875" stroke-miterlimit="8" fill="none"/><text font-family="DengXian,DengXian_MSFontService,sans-serif" font-weight="400" font-size="64" transform="matrix(1 0 0 1 2353.81 1809)">7</text><rect x="2331.5" y="1827.5" width="78.9998" height="80.0001" stroke="#042433" stroke-width="6.875" stroke-miterlimit="8" fill="none"/><text font-family="DengXian,DengXian_MSFontService,sans-serif" font-weight="400" font-size="64" transform="matrix(1 0 0 1 2353.58 1889)">8</text><rect x="2331.5" y="1907.5" width="78.9998" height="80.0001" stroke="#042433" stroke-width="6.875" stroke-miterlimit="8" fill="none"/><text font-family="DengXian,DengXian_MSFontService,sans-serif" font-weight="400" font-size="64" transform="matrix(1 0 0 1 2353.58 1968)">9</text><rect x="2331.5" y="1987.5" width="79.9998" height="79.0001" stroke="#042433" stroke-width="6.875" stroke-miterlimit="8" fill="none"/><text font-family="DengXian,DengXian_MSFontService,sans-serif" font-weight="400" font-size="64" transform="matrix(1 0 0 1 2355.11 2048)">a</text><rect x="2432.5" y="1268.5" width="79" height="80.0001" stroke="#042433" stroke-width="6.875" stroke-miterlimit="8" fill="#FF0000"/><rect x="2431.5" y="1348.5" width="80" height="80.0001" stroke="#042433" stroke-width="6.875" stroke-miterlimit="8" fill="#FF0000"/><rect x="2432.5" y="1428.5" width="79" height="79.9998" stroke="#042433" stroke-width="6.875" stroke-miterlimit="8" fill="#FF0000"/><rect x="2431.5" y="1508.5" width="80" height="80.0001" stroke="#042433" stroke-width="6.875" stroke-miterlimit="8" fill="#FF0000"/><rect x="2431.5" y="1588.5" width="80" height="79.0001" stroke="#042433" stroke-width="6.875" stroke-miterlimit="8" fill="#00B050"/><rect x="2431.5" y="1667.5" width="80" height="80.0001" stroke="#042433" stroke-width="6.875" stroke-miterlimit="8" fill="#00B050"/><rect x="2431.5" y="1748.5" width="80" height="78.9998" stroke="#042433" stroke-width="6.875" stroke-miterlimit="8" fill="#00B050"/><rect x="2431.5" y="1827.5" width="80" height="80.0001" stroke="#042433" stroke-width="6.875" stroke-miterlimit="8" fill="#00B050"/><rect x="2431.5" y="1907.5" width="80" height="80.0001" stroke="#042433" stroke-width="6.875" stroke-miterlimit="8" fill="#00B050"/><rect x="2431.5" y="1987.5" width="79" height="79.0001" stroke="#042433" stroke-width="6.875" stroke-miterlimit="8" fill="#00B050"/><path d="M1.5122-3.08701 253.327 120.267 250.303 126.441-1.5122 3.08701ZM253.748 108.989 272.395 133.435 241.65 133.685Z" transform="matrix(1 0 0 -1 1574.5 1760.94)"/><path d="M0.666894-3.37219 250.342 46.0042 249.008 52.7486-0.666894 3.37219ZM247.846 34.9985 272.156 53.8224 242.511 61.976Z" transform="matrix(1 0 0 -1 1574.5 1761.32)"/><path d="M1574.83 1758.08 1824.33 1782.46 1823.66 1789.31 1574.17 1764.92ZM1820.77 1771.76 1846.8 1788.11 1818.1 1799.12Z"/><path d="M1575.75 1758.3 1826.47 1856.19 1823.97 1862.59 1573.25 1764.7ZM1825.95 1844.92 1846.56 1867.73 1815.95 1870.53Z"/><path d="M2.5107-2.34793 292.318 307.551 287.296 312.246-2.5107 2.34793ZM296.719 297.159 305.46 326.636 276.633 315.943Z" transform="matrix(1 0 0 -1 2026.5 1635.14)"/><text font-family="DengXian,DengXian_MSFontService,sans-serif" font-weight="700" font-size="50" transform="matrix(1 0 0 1 1777.98 2145)">High Pressure</text><text font-family="DengXian,DengXian_MSFontService,sans-serif" font-weight="700" font-size="50" transform="matrix(1 0 0 1 2280.42 2154)">L</text><text font-family="DengXian,DengXian_MSFontService,sans-serif" font-weight="700" font-size="50" transform="matrix(1 0 0 1 2305.05 2154)">ow </text><text font-family="DengXian,DengXian_MSFontService,sans-serif" font-weight="700" font-size="50" transform="matrix(1 0 0 1 2387.55 2154)">P</text><text font-family="DengXian,DengXian_MSFontService,sans-serif" font-weight="700" font-size="50" transform="matrix(1 0 0 1 2416.77 2154)">ressure</text><path d="M2.5107-2.34793 292.318 307.551 287.296 312.246-2.5107 2.34793ZM296.719 297.159 305.46 326.636 276.633 315.943Z" transform="matrix(1 0 0 -1 2026.5 1715.14)"/><path d="M2.5107-2.34793 292.318 307.551 287.296 312.246-2.5107 2.34793ZM296.719 297.159 305.46 326.636 276.633 315.943Z" transform="matrix(1 0 0 -1 2026.5 1791.14)"/><path d="M2.5107-2.34793 292.318 307.551 287.296 312.246-2.5107 2.34793ZM296.719 297.159 305.46 326.636 276.633 315.943Z" transform="matrix(1 0 0 -1 2025.5 1873.14)"/><rect x="2848.5" y="1392.5" width="158" height="158" stroke="#042433" stroke-width="6.875" stroke-miterlimit="8" fill="none"/><text font-family="DengXian,DengXian_MSFontService,sans-serif" font-weight="400" font-size="83" transform="matrix(1 0 0 1 2905.08 1498)">1</text><rect x="3006.5" y="1391.5" width="157" height="158" stroke="#042433" stroke-width="6.875" stroke-miterlimit="8" fill="none"/><text font-family="DengXian,DengXian_MSFontService,sans-serif" font-weight="400" font-size="83" transform="matrix(1 0 0 1 3062.75 1498)">2</text><rect x="3162.5" y="1392.5" width="158" height="158" stroke="#042433" stroke-width="6.875" stroke-miterlimit="8" fill="none"/><text font-family="DengXian,DengXian_MSFontService,sans-serif" font-weight="400" font-size="83" transform="matrix(1 0 0 1 3219.29 1498)">3</text><rect x="3320.5" y="1391.5" width="158" height="158" stroke="#042433" stroke-width="6.875" stroke-miterlimit="8" fill="none"/><text font-family="DengXian,DengXian_MSFontService,sans-serif" font-weight="400" font-size="83" transform="matrix(1 0 0 1 3376.96 1498)">4</text><text font-family="DengXian,DengXian_MSFontService,sans-serif" font-weight="700" font-size="73" transform="matrix(1 0 0 1 2965.18 1340)">Block</text><text font-family="DengXian,DengXian_MSFontService,sans-serif" font-weight="700" font-size="73" transform="matrix(1 0 0 1 3164.56 1340)">-</text><text font-family="DengXian,DengXian_MSFontService,sans-serif" font-weight="700" font-size="73" transform="matrix(1 0 0 1 3221.28 1340)">2</text><text font-family="DengXian,DengXian_MSFontService,sans-serif" font-weight="700" font-size="73" transform="matrix(1 0 0 1 3261.95 1340)">02</text><path d="M2809.5 1299.33C2809.5 1267.39 2835.39 1241.5 2867.33 1241.5L3471.67 1241.5C3503.61 1241.5 3529.5 1267.39 3529.5 1299.33L3529.5 1530.67C3529.5 1562.61 3503.61 1588.5 3471.67 1588.5L2867.33 1588.5C2835.39 1588.5 2809.5 1562.61 2809.5 1530.67Z" stroke="#000000" stroke-width="6.875" stroke-miterlimit="8" fill="none" fill-rule="evenodd"/><path d="M2512.63 1308.25 2788.79 1404.01 2786.54 1410.5 2510.37 1314.75ZM2787.84 1392.76 2809.31 1414.76 2778.83 1418.74Z"/><path d="M2511.81 1385.08 2787.04 1409.65 2786.43 1416.5 2511.19 1391.92ZM2783.39 1398.97 2809.56 1415.11 2780.95 1426.36Z"/><path d="M0.61114-3.38274 275.973 46.3654 274.751 53.1309-0.61114 3.38274ZM273.296 35.4023 297.914 53.8224 268.407 62.4642Z" transform="matrix(1 0 0 -1 2511.5 1468.32)"/><path d="M1.4042-3.13761 278.639 120.936 275.831 127.211-1.4042 3.13761ZM278.669 109.651 298.153 133.435 267.435 134.752Z" transform="matrix(1 0 0 -1 2511.5 1547.93)"/><text font-family="DengXian,DengXian_MSFontService,sans-serif" font-weight="700" font-size="110" transform="matrix(1 0 0 1 2987.17 1797)">Engine</text><path d="M2802.5 1773.34C2802.5 1719.85 2845.85 1676.5 2899.34 1676.5L3425.66 1676.5C3479.15 1676.5 3522.5 1719.85 3522.5 1773.34L3522.5 2160.66C3522.5 2214.15 3479.15 2257.5 3425.66 2257.5L2899.34 2257.5C2845.85 2257.5 2802.5 2214.15 2802.5 2160.66Z" stroke="#000000" stroke-width="6.875" stroke-miterlimit="8" fill="none" fill-rule="evenodd"/><path d="M2836.5 1858.5C2836.5 1845.8 2846.8 1835.5 2859.5 1835.5L3465.5 1835.5C3478.2 1835.5 3488.5 1845.8 3488.5 1858.5L3488.5 1950.5C3488.5 1963.2 3478.2 1973.5 3465.5 1973.5L2859.5 1973.5C2846.8 1973.5 2836.5 1963.2 2836.5 1950.5Z" stroke="#000000" stroke-width="6.875" stroke-miterlimit="8" fill="none" fill-rule="evenodd"/><text font-family="DengXian,DengXian_MSFontService,sans-serif" font-weight="400" font-size="73" transform="matrix(1 0 0 1 2936.03 1930)">Generate B202</text><path d="M2840.5 2053.33C2840.5 2040.72 2850.72 2030.5 2863.33 2030.5L3469.67 2030.5C3482.28 2030.5 3492.5 2040.72 3492.5 2053.33L3492.5 2144.67C3492.5 2157.28 3482.28 2167.5 3469.67 2167.5L2863.33 2167.5C2850.72 2167.5 2840.5 2157.28 2840.5 2144.67Z" stroke="#000000" stroke-width="6.875" stroke-miterlimit="8" fill="none" fill-rule="evenodd"/><text font-family="DengXian,DengXian_MSFontService,sans-serif" font-weight="400" font-size="73" transform="matrix(1 0 0 1 2942.38 2124)">Release   B103</text></g></svg>